<?xml version="1.0" encoding="UTF-8" standalone="no"?>
<!-- Created with Inkscape (http://www.inkscape.org/) -->

<svg
   xmlns:dc="http://purl.org/dc/elements/1.1/"
   xmlns:cc="http://creativecommons.org/ns#"
   xmlns:rdf="http://www.w3.org/1999/02/22-rdf-syntax-ns#"
   xmlns:svg="http://www.w3.org/2000/svg"
   xmlns="http://www.w3.org/2000/svg"
   xmlns:sodipodi="http://sodipodi.sourceforge.net/DTD/sodipodi-0.dtd"
   xmlns:inkscape="http://www.inkscape.org/namespaces/inkscape"
   width="126.27428mm"
   height="126.27428mm"
   viewBox="0 0 447.42857 447.42856"
   id="svg2"
   version="1.1"
   inkscape:version="0.91 r13725"
   sodipodi:docname="ccn-lite-icon.svg"
   inkscape:export-filename="/home/koala/ccn-lite/doc/ccn-lite-logo.png"
   inkscape:export-xdpi="300.13"
   inkscape:export-ydpi="300.13">
  <defs
     id="defs4">
    <marker
       inkscape:stockid="Arrow1Lstart"
       orient="auto"
       refY="0"
       refX="0"
       id="Arrow1Lstart"
       style="overflow:visible"
       inkscape:isstock="true">
      <path
         id="path4378"
         d="M 0,0 5,-5 -12.5,0 5,5 0,0 Z"
         style="fill:#000000;fill-opacity:1;fill-rule:evenodd;stroke:none;stroke-width:1pt;stroke-opacity:1"
         transform="matrix(0.8,0,0,0.8,10,0)"
         inkscape:connector-curvature="0" />
    </marker>
  </defs>
  <sodipodi:namedview
     id="base"
     pagecolor="#ffffff"
     bordercolor="#666666"
     borderopacity="1.0"
     inkscape:pageopacity="1"
     inkscape:pageshadow="2"
     inkscape:zoom="0.98994949"
     inkscape:cx="25.725304"
     inkscape:cy="218.53032"
     inkscape:document-units="px"
     inkscape:current-layer="layer2"
     showgrid="false"
     fit-margin-top="0"
     fit-margin-left="0"
     fit-margin-right="0"
     fit-margin-bottom="0"
     inkscape:window-width="1871"
     inkscape:window-height="1056"
     inkscape:window-x="49"
     inkscape:window-y="24"
     inkscape:window-maximized="1"
     units="mm" />
  <metadata
     id="metadata7">
    <rdf:RDF>
      <cc:Work
         rdf:about="">
        <dc:format>image/svg+xml</dc:format>
        <dc:type
           rdf:resource="http://purl.org/dc/dcmitype/StillImage" />
        <dc:title></dc:title>
      </cc:Work>
    </rdf:RDF>
  </metadata>
  <g
     inkscape:groupmode="layer"
     id="layer2"
     inkscape:label="Text"
     style="display:inline"
     transform="translate(117.1442,-165.66737)">
    <text
       xml:space="preserve"
       style="font-style:normal;font-variant:normal;font-weight:bold;font-stretch:normal;font-size:41.83421707px;line-height:125%;font-family:sans-serif;-inkscape-font-specification:'sans-serif Bold';letter-spacing:0px;word-spacing:0px;fill:#4242f9;fill-opacity:1;stroke:none;stroke-width:1px;stroke-linecap:butt;stroke-linejoin:miter;stroke-opacity:1"
       x="-110.49616"
       y="601.80212"
       id="text3347-6"
       sodipodi:linespacing="125%"
       transform="scale(1.003361,0.99665025)"><tspan
         sodipodi:role="line"
         id="tspan3349-9"
         x="-110.49616"
         y="601.80212"
         style="font-style:normal;font-variant:normal;font-weight:bold;font-stretch:normal;font-size:203.94181824px;font-family:'Droid Sans';-inkscape-font-specification:'Droid Sans Bold';fill:#4242f9;fill-opacity:1">lite</tspan></text>
    <text
       xml:space="preserve"
       style="font-style:normal;font-variant:normal;font-weight:bold;font-stretch:normal;font-size:41.83421707px;line-height:125%;font-family:sans-serif;-inkscape-font-specification:'sans-serif Bold';letter-spacing:0px;word-spacing:0px;display:inline;fill:#4242f9;fill-opacity:1;stroke:none;stroke-width:1px;stroke-linecap:butt;stroke-linejoin:miter;stroke-opacity:1"
       x="-113.57354"
       y="321.23718"
       id="text3347"
       sodipodi:linespacing="125%"
       transform="matrix(1.003361,0,0,0.99665025,0,2.3706055e-6)"><tspan
         sodipodi:role="line"
         id="tspan3349"
         x="-113.57354"
         y="321.23718"
         style="font-style:normal;font-variant:normal;font-weight:bold;font-stretch:normal;font-size:203.94181824px;font-family:'Droid Sans';-inkscape-font-specification:'Droid Sans Bold';fill:#4242f9;fill-opacity:1">CCN</tspan></text>
  </g>
  <g
     inkscape:groupmode="layer"
     id="layer3"
     inkscape:label="Feather"
     style="display:inline"
     transform="translate(7.6799135,-20.448019)">
    <path
       style="display:inline;fill:#000000;stroke-width:0.1;stroke-miterlimit:4;stroke-dasharray:none"
       d="m 354.9651,451.40411 c -1.33075,0.369 -2.87421,0.1632 -3.42993,-0.45734 -1.89171,-2.11235 6.00071,-40.21516 8.87387,-42.84102 1.7184,-1.57043 1.19554,-3.50034 -1.03835,-3.83277 -3.34584,-0.49789 -6.08231,-8.71443 -6.36013,-19.09698 -0.15405,-5.75703 1.83293,-4.10392 2.37445,1.97553 0.66087,7.41905 1.54879,8.85134 1.57552,2.54142 0.0353,-8.33223 -3.22163,-18.59304 -5.30847,-16.72419 -0.45414,0.40669 -0.39311,1.2225 0.13562,1.8129 0.52872,0.59038 0.79551,1.6355 0.59284,2.32245 -0.25734,0.87232 -1.13115,0.16004 -2.89706,-2.36026 -3.01149,-4.29856 -8.89758,-8.89991 -15.36514,-12.01145 -2.5865,-1.24434 -4.92164,-2.77756 -5.18922,-3.40713 -0.82446,-1.9399 8.09013,2.04842 15.07428,6.74409 5.27166,3.54433 5.95811,3.82067 3.35294,1.34972 -1.80173,-1.70887 -4.1988,-3.63969 -5.32683,-4.29069 -1.26801,-0.7318 -1.74677,-1.45605 -1.25415,-1.89723 1.33253,-1.19333 7.11017,3.19548 10.52473,7.99474 3.70029,5.20085 4.52411,4.28425 1.15836,-1.28883 -3.37724,-5.59213 -14.95401,-13.32992 -22.23292,-14.86026 -5.46209,-1.14836 -7.74416,-2.31033 -6.58175,-3.35123 0.79831,-0.71487 8.10952,0.66618 12.17696,2.30016 1.89927,0.76297 5.69772,3.09999 8.44101,5.19336 2.7433,2.09341 5.87211,4.14688 6.95295,4.56328 1.28472,0.49496 2.18309,1.54959 2.59461,3.04595 0.34621,1.25887 2.12617,4.57292 3.95549,7.36457 1.82931,2.79164 3.6306,5.95918 4.00286,7.03896 0.50309,1.45923 0.78548,1.59504 1.09996,0.52906 0.60328,-2.04497 -1.60282,-7.88742 -3.98106,-10.54307 -1.11255,-1.24231 -1.68759,-2.55895 -1.27787,-2.92587 0.40972,-0.36692 1.57508,0.25063 2.58971,1.37236 1.01499,1.12138 2.72238,2.6127 3.795,3.31334 1.43375,0.9365 1.63129,1.55947 0.74593,2.35235 -0.66237,0.59318 -0.90752,1.4099 -0.54481,1.81493 1.07381,1.19905 0.94154,6.03772 -0.22862,8.36373 -0.59753,1.18774 -0.54297,2.74492 0.12121,3.46041 1.13316,1.22065 1.19596,1.15816 1.01755,-1.01248 -0.10457,-1.27232 0.36309,-2.41216 1.03921,-2.53293 0.67613,-0.12081 0.85441,-1.41962 0.39617,-2.88631 -1.00554,-3.21847 0.12228,-8.57547 1.51272,-7.1853 0.49594,0.49577 0.58502,-0.0231 0.198,-1.15316 -1.30736,-3.81734 -13.40064,-15.69123 -17.87558,-17.55126 -5.77088,-2.39871 -17.76475,-6.31014 -21.30617,-6.94834 -2.91175,-0.52474 -2.97894,-0.60095 -2.8349,-3.21534 0.16072,-2.91623 1.35217,-3.46782 5.83233,-2.70008 3.97545,0.68124 5.14684,-0.70814 1.43166,-1.69807 -1.80596,-0.48123 -2.98328,-1.31614 -2.94088,-2.0856 0.0424,-0.76947 3.37015,-0.33345 8.3126,1.08912 10.80332,3.10951 12.89989,3.94553 12.58358,5.01773 -0.14463,0.49023 -1.67215,0.23362 -3.39448,-0.57019 -3.98939,-1.86188 -7.43104,-2.30945 -8.74062,-1.13666 -1.82143,1.63116 -0.008,3.83437 4.76982,5.7963 2.56685,1.05395 4.90471,2.54034 5.19525,3.30311 0.29056,0.76278 1.70116,1.39299 3.13468,1.40046 2.49711,0.0131 2.54795,-0.0517 1.21221,-1.54324 -0.76683,-0.85626 -2.49122,-2.12396 -3.83198,-2.81709 -1.34078,-0.69313 -2.15665,-1.51199 -1.81305,-1.81969 0.81084,-0.72613 8.92878,5.37698 13.85289,10.41469 2.13446,2.18371 4.10652,3.5579 4.42833,3.08582 0.69244,-1.01578 -3.77997,-6.11468 -8.57479,-9.77598 -1.89124,-1.44413 -3.15038,-2.88382 -2.79804,-3.19936 0.55169,-0.49407 9.93933,5.95619 12.53908,8.61564 0.49389,0.50519 0.92693,0.39275 0.96235,-0.24991 0.0862,-1.56433 -2.47999,-4.79843 -4.92228,-6.20347 -1.0872,-0.62545 -1.83054,-1.63264 -1.65189,-2.23821 0.46967,-1.59198 6.92798,4.04541 10.42926,9.10357 3.85844,5.57416 7.0818,13.38551 5.94401,14.40445 -0.48979,0.43862 -0.63319,1.47316 -0.31865,2.29894 0.31455,0.82577 0.83131,1.2691 1.14836,0.98516 1.50988,-1.35215 7.73208,-13.36162 7.25673,-14.00619 -0.29754,-0.40345 -0.79167,-1.41513 -1.09808,-2.2482 -6.54554,-17.79651 -14.84187,-25.67901 -31.52524,-29.95277 -3.74664,-0.95976 -6.78963,-2.15207 -6.76221,-2.64958 0.12209,-2.21534 16.19267,3.43621 23.54574,8.28033 5.8027,3.82276 13.90843,13.76234 13.89136,17.03415 -0.007,1.39498 0.52849,2.84125 1.1906,3.21392 2.31174,1.30114 -1.15712,-8.42786 -4.22728,-11.85615 -1.66577,-1.86006 -2.69344,-3.68212 -2.28371,-4.04905 0.40971,-0.36691 1.96348,0.69356 3.45282,2.35661 1.63537,1.82613 2.83963,2.57715 3.04052,1.89621 0.50338,-1.70629 -8.2414,-10.99696 -12.59742,-13.38382 -2.11021,-1.15628 -3.54985,-2.35928 -3.19916,-2.67333 0.67846,-0.6076 6.3138,3.15608 12.03614,8.03862 2.65847,2.26831 4.06871,4.50611 6.04119,9.58636 2.17344,5.59777 2.80292,6.53976 4.05215,6.06394 0.85095,-0.32414 0.99432,-0.70635 0.33767,-0.90007 -1.04794,-0.30916 -4.62889,-8.10542 -5.00874,-10.90472 -0.15917,-1.17319 -7.00037,-7.54175 -11.59529,-10.79423 -1.27855,-0.90501 -4.83504,-2.77881 -7.90329,-4.16397 -6.18592,-2.79264 -7.11283,-3.49526 -5.96598,-4.52232 0.9082,-0.81332 7.05761,1.88392 7.29247,3.19858 0.0872,0.48856 1.12838,0.94171 2.31359,1.00703 2.63315,0.14512 8.13553,3.56355 8.87942,5.51651 0.2989,0.7847 0.91457,1.09439 1.3681,0.68824 0.45356,-0.40618 1.80545,0.34637 3.00422,1.67234 1.60641,1.77684 2.10375,1.95945 1.89124,0.69437 -0.46322,-2.75751 0.79996,-1.9863 6.46477,3.9469 3.19854,3.35008 5.6341,5.28913 6.08626,4.84553 0.41461,-0.40673 1.40249,-2.34858 2.1953,-4.31516 1.78994,-4.43993 -0.13274,-8.24344 -8.2688,-16.35779 -4.50243,-4.49039 -5.04191,-5.25408 -2.61378,-3.69998 1.68281,1.07707 5.42932,4.89466 8.32558,8.48355 4.63581,5.74445 5.24211,6.24557 5.06686,4.1879 -0.14729,-1.72943 -1.79316,-3.96464 -6.32827,-8.59424 -3.37105,-3.44128 -5.88505,-6.47556 -5.58659,-6.74283 0.77663,-0.6955 9.98631,7.79774 11.42987,10.5407 0.70136,1.33273 1.53081,2.0154 1.97038,1.62174 1.38955,-1.24441 -7.87425,-11.11107 -14.67901,-15.63426 -2.3934,-1.59092 -4.342,-3.06751 -4.3302,-3.28131 0.0822,-1.49229 11.96996,6.39463 15.69178,10.41074 4.70563,5.07768 7.40054,5.70128 3.3338,0.77145 -1.31351,-1.59235 -2.79436,-3.43757 -3.29072,-4.10053 -1.91776,-2.56142 -8.86542,-7.40568 -12.531,-8.73726 -4.88594,-1.77489 -6.29185,-3.24461 -1.81162,-1.89387 3.64231,1.09815 11.04851,5.16669 14.73546,8.09484 1.2552,0.99687 2.68909,1.82701 3.18643,1.84477 1.09929,0.0392 -5.01521,-5.55583 -7.87574,-7.20668 -1.24114,-0.71628 -1.74588,-1.45685 -1.27832,-1.87558 1.00885,-0.90346 5.34054,2.22657 9.54029,6.89369 1.83982,2.04393 2.7396,2.7483 2.00023,1.56467 -0.73937,-1.18364 -1.11379,-2.84159 -0.83205,-3.68431 0.68123,-2.03775 -1.1289,-3.95627 -2.54024,-2.69235 -0.61459,0.55038 -1.44975,0.6296 -1.85592,0.17605 -0.40618,-0.45355 -0.0629,-1.082 0.7629,-1.39654 1.76897,-0.67381 -0.68332,-3.91226 -3.8297,-5.05738 -1.36839,-0.49805 -1.87752,-1.19422 -1.70772,-2.33521 0.17839,-1.19878 0.55759,-1.31105 1.44428,-0.42757 4.39361,4.37783 8.05149,7.11088 8.97938,6.70913 0.70354,-0.3046 -0.10448,-1.79379 -2.30896,-4.25538 -1.86518,-2.08272 -3.05601,-4.08699 -2.64629,-4.45392 0.40972,-0.36691 0.42702,-1.02214 0.0385,-1.45603 -0.38858,-0.4339 -0.85618,-0.28152 -1.03914,0.33861 -0.18294,0.62015 -0.88059,0.52549 -1.55032,-0.21036 -0.66972,-0.73586 -3.04294,-2.34774 -5.27378,-3.58196 -2.23085,-1.23422 -4.03553,-2.61705 -4.01041,-3.07295 0.0611,-1.10825 3.56796,-1.6522 5.08155,-0.7882 0.74046,0.42267 0.68096,0.78243 -0.1542,0.93164 -0.93739,0.16749 -0.75245,0.76286 0.59473,1.91455 2.92087,2.49702 3.86712,2.10462 2.17013,-0.8999 -1.03621,-1.83464 -2.97462,-3.30961 -6.21427,-4.72939 -2.58959,-1.13472 -4.68988,-2.39832 -4.6673,-2.80798 0.0226,-0.40967 1.83262,0.14242 4.0223,1.22685 2.18969,1.08445 4.30268,1.68388 4.69551,1.33207 0.79453,-0.71154 -1.82595,-2.48564 -6.14643,-4.16125 -1.55347,-0.60248 -3.21868,-1.53557 -3.70045,-2.07353 -1.28358,-1.43329 -13.71808,-4.39573 -13.17377,-3.13856 0.2542,0.5871 3.03235,1.88423 6.17366,2.88252 6.02664,1.9152 7.46236,2.81371 6.24209,3.90649 -0.40971,0.36692 -1.06517,0.30954 -1.45658,-0.12751 -0.3914,-0.43706 -2.64361,-1.16389 -5.00493,-1.6152 -5.33576,-1.0198 -11.46633,-6.2069 -11.00443,-9.31092 0.25611,-1.72099 1.04132,-2.05621 5.20223,-2.22082 4.02522,-0.15924 4.7506,-0.45402 4.06085,-1.65022 -0.66334,-1.15041 0.0647,-1.36532 3.46588,-1.02301 5.84678,0.58841 10.16429,2.35154 13.37701,5.4627 1.47868,1.43194 4.21799,3.21037 6.08737,3.95206 3.25253,1.29047 10.64986,6.90712 11.9377,9.06405 0.33741,0.56507 1.172,0.92763 1.85467,0.80568 1.6071,-0.28704 -4.91485,-5.9607 -12.37581,-10.76607 -4.26958,-2.74988 -5.07356,-3.53239 -3.68315,-3.58472 0.97826,-0.0368 2.29751,0.45157 2.93164,1.08531 0.63414,0.63375 0.53759,-0.13042 -0.21457,-1.69814 -1.89008,-3.93964 0.65533,-6.21918 4.08709,-3.66015 1.36561,1.01832 3.83339,2.60496 5.48395,3.52584 2.2724,1.26783 2.97833,2.08598 2.90756,3.36977 -0.0514,0.93248 0.37939,2.20832 0.95719,2.83522 0.73795,0.80064 0.99092,0.19456 0.85003,-2.0365 -0.22778,-3.60718 -1.84624,-5.11449 -10.65461,-9.92291 -8.07045,-4.40559 -18.36761,-8.1211 -25.24485,-9.10907 -7.21909,-1.03707 -7.96004,-2.83022 -0.85834,-2.07723 5.71493,0.60594 25.6855,8.40029 31.84836,12.43014 2.25893,1.47709 4.37286,2.44769 4.69759,2.15687 0.32475,-0.29082 0.32598,-0.82407 0.003,-1.18501 -0.74782,-0.83504 -11.22488,-6.26049 -17.47208,-9.04774 -2.71133,-1.20969 -5.14604,-2.94656 -5.62652,-4.01386 -0.63579,-1.41223 -1.03025,-1.52427 -1.58177,-0.4493 -0.50421,0.98277 -2.03493,0.92975 -4.87858,-0.16896 -4.29931,-1.66114 -9.69138,-1.77723 -18.28201,-0.39358 -3.26903,0.5265 -5.3895,-0.67294 -4.78887,-2.70885 0.18106,-0.61376 4.18179,-0.92761 8.89053,-0.69743 4.70871,0.23017 8.86152,0.0164 9.22843,-0.47505 0.36691,-0.49147 3.42177,-0.0597 6.78856,0.95961 4.76641,1.44298 6.48705,2.4564 7.77311,4.5782 1.03879,1.71385 2.36749,2.78319 3.58077,2.88189 1.06103,0.0862 3.58117,1.06529 5.60031,2.17556 2.01916,1.11026 5.22424,2.46849 7.12239,3.01828 l 3.45122,0.99963 -2.5196,-1.77074 c -1.38579,-0.9739 -4.1849,-2.38471 -6.22025,-3.13513 -2.03534,-0.75041 -4.14203,-1.88416 -4.6815,-2.51943 -0.53952,-0.63525 0.66353,-0.51341 2.67338,0.27076 8.40161,3.27806 8.60109,3.30848 8.89161,1.35618 0.3931,-2.64154 2.35202,-0.24863 2.93212,3.58171 0.24611,1.62271 0.79548,2.96967 1.22158,2.99315 1.07547,0.0593 1.76603,-12.60128 0.74924,-13.73668 -0.45427,-0.50726 -0.82287,1.10475 -0.81909,3.58225 0.008,5.42702 -0.99149,4.9559 -1.16127,-0.54722 -0.18724,-6.06954 -2.11796,-7.18927 -2.2281,-1.2922 -0.0469,2.51251 -0.55861,3.42945 -2.29448,4.11164 -1.22875,0.4829 -2.66343,0.3986 -3.18817,-0.18738 -0.52476,-0.58597 -3.09466,-1.7774 -5.71088,-2.64765 -5.66065,-1.88292 -6.30168,-2.4153 -3.99235,-3.31575 1.44234,-0.56239 1.41579,-0.73104 -0.15488,-0.98266 -1.04274,-0.16707 -2.98064,-0.80998 -4.30643,-1.42868 -2.13617,-0.99688 -2.10238,-0.88519 0.29688,0.98116 1.87644,1.45964 2.31426,2.17631 1.42643,2.33491 -0.70454,0.1258 -1.82693,-0.3808 -2.49417,-1.12589 -0.66727,-0.74509 -2.08977,-1.32172 -3.16113,-1.28139 -1.07135,0.0404 -2.20908,-0.2183 -2.52828,-0.57474 -0.69162,-0.77229 -5.88466,-1.53977 -11.54763,-1.70662 -2.2475,-0.0662 -4.0585,-0.62624 -4.02443,-1.2445 0.0341,-0.61827 2.69798,-0.76776 5.9198,-0.33218 3.22182,0.43557 5.87354,0.47651 5.89271,0.091 0.0191,-0.38554 -2.91963,-1.03106 -6.53063,-1.43446 -6.95271,-0.77676 -8.93251,-2.17252 -2.93062,-2.06608 4.65054,0.0825 14.84566,2.73112 23.11178,6.00435 6.43314,2.5474 9.106,3.98893 5.6406,3.0421 -1.95862,-0.53515 -1.03283,0.85622 1.4004,2.10462 1.21823,0.62503 1.52572,0.4695 1.32237,-0.66885 -0.18978,-1.06207 0.50608,-1.14543 2.45053,-0.29356 1.49354,0.65434 3.01672,0.91996 3.38485,0.59028 0.36814,-0.32968 0.29656,-0.71863 -0.15904,-0.86434 -0.45563,-0.14571 -3.05347,-1.29264 -5.77301,-2.54874 -14.16635,-6.54319 -26.00591,-9.18247 -36.56076,-8.15016 -8.37028,0.81866 -11.12828,0.51831 -9.40571,-1.02431 2.77382,-2.48409 19.86921,-1.45672 30.26831,1.81901 2.86955,0.90391 5.23604,1.30446 5.25888,0.89014 0.0657,-1.19206 -8.14116,-3.83789 -14.95778,-4.82228 -2.38423,-0.3443 -4.31259,-1.0318 -4.28526,-1.52776 0.0801,-1.45408 8.27925,0.21678 18.34976,3.73942 5.14523,1.79978 9.36576,3.07652 9.37895,2.83719 0.0132,-0.23932 -3.5705,-1.97047 -7.96378,-3.84701 -12.53999,-5.35631 -22.33809,-6.5931 -34.86135,-4.40044 -6.09853,1.06776 -7.51946,1.74984 -13.30075,6.3847 -3.56001,2.85407 -6.87495,5.16705 -7.36652,5.13997 -1.87311,-0.10323 -0.61595,-2.02933 4.48487,-6.87128 7.36763,-6.99374 8.06783,-7.78087 6.97521,-7.84108 -0.52934,-0.0291 -2.78592,1.73876 -5.01461,3.92875 -3.80027,3.73424 -4.05905,3.83995 -4.16253,1.70019 -0.0607,-1.25487 -0.29472,-1.68576 -0.52007,-0.95755 -0.2317,0.74876 -1.24489,1.03901 -2.33187,0.66801 -1.82099,-0.62152 -1.88725,-0.56408 -1.25914,1.09163 0.36466,0.96123 0.15984,1.83759 -0.45513,1.94745 -1.71363,0.3061 -6.99966,7.08638 -5.80049,7.44014 0.58036,0.17121 2.30161,-0.78658 3.82503,-2.12842 2.25427,-1.98549 2.65318,-2.07931 2.14305,-0.50371 -0.87978,2.71734 -7.91573,8.11665 -8.745,6.71083 -0.35622,-0.60389 -1.18227,-0.61921 -1.83568,-0.034 -1.75948,1.57569 -14.38138,7.31165 -14.3375,6.5156 0.0207,-0.37598 2.08306,-1.85204 4.58273,-3.28043 5.19498,-2.96813 13.13427,-9.79785 13.2211,-11.37335 0.0616,-1.11875 0.76768,-1.92826 6.01605,-6.89781 1.79783,-1.7024 3.01767,-3.37568 2.71066,-3.71848 -0.307,-0.34281 -4.70155,3.35035 -9.76566,8.20702 -12.75593,12.23339 -30.94154,24.28367 -33.06657,21.91077 -1.01532,-1.13374 1.59758,-3.09813 5.56947,-4.18716 4.85186,-1.33031 14.3506,-8.23685 25.65639,-18.6548 13.24283,-12.20286 17.42802,-16.69445 15.32455,-16.44646 -1.14671,0.13517 -0.35753,-0.76777 2.47006,-2.8262 2.34923,-1.71015 4.18978,-3.65318 4.23482,-4.47055 0.0543,-0.98624 0.46925,-1.3308 1.30544,-1.08411 0.67418,0.19889 1.91231,-0.25315 2.7514,-1.00463 1.05005,-0.94037 1.70389,-0.89824 2.09752,0.13516 0.3845,1.00945 1.03495,1.08672 1.9852,0.23574 0.77731,-0.69612 2.23329,-1.24138 3.2355,-1.21167 1.00223,0.0297 3.13356,-0.50532 4.73633,-1.1889 1.60276,-0.68357 3.34839,-0.75792 3.87919,-0.16522 0.53079,0.59271 3.4056,1.27335 6.38847,1.51253 7.93466,0.63626 8.52005,2.39558 0.79049,2.37575 -1.6621,-0.004 -3.04107,0.33801 -3.06435,0.76059 -0.0233,0.42257 2.31519,0.6756 5.19662,0.56228 2.88142,-0.11329 5.75708,0.37254 6.39035,1.07968 0.63327,0.70714 1.67217,1.19267 2.30865,1.07897 0.63649,-0.11373 1.81375,0.52888 2.61614,1.42793 1.30859,1.46573 1.1099,1.5316 -1.92294,0.63606 -4.12186,-1.2171 -9.1162,-1.28603 -9.18008,-0.12668 -0.0258,0.46784 2.7337,1.26497 6.13218,1.77139 7.52351,1.12107 10.57661,2.22736 11.28586,4.08936 0.29616,0.77746 1.52473,1.37644 2.73019,1.33108 2.03418,-0.0765 1.81823,-0.4226 -3.00407,-4.81339 -2.85768,-2.60198 -7.15491,-5.95541 -9.54935,-7.45206 -5.09839,-3.18674 -5.91231,-3.95927 -4.4471,-4.22102 1.60956,-0.2875 0.9818,-2.01013 -0.92392,-2.53532 -1.3493,-0.37183 -1.6185,-0.16702 -1.42105,1.08121 0.18391,1.16212 -0.50281,1.34107 -2.79865,0.72932 -9.90447,-2.63914 -21.18392,-1.26279 -32.08048,3.91457 -6.32283,3.00421 -8.29925,4.53652 -20.59956,15.9707 -8.78874,8.16987 -16.01989,14.19741 -20.42469,17.025 -11.97814,7.68918 -12.81415,8.39914 -6.09991,5.18027 3.61579,-1.73345 10.76867,-5.84228 15.89526,-9.13076 8.24399,-5.28811 9.86856,-6.67848 14.05892,-12.03203 5.28556,-6.75278 15.29378,-15.22374 17.82189,-15.08441 1.25301,0.069 1.03812,0.47417 -0.90044,1.69752 -6.7687,4.27145 -10.88349,8.2027 -14.85618,14.19351 -3.65348,5.50946 -8.78767,11.13379 -11.8128,12.94052 -0.48104,0.28729 -1.13834,0.90238 -1.4606,1.36696 -1.63274,2.35319 -7.37663,6.29952 -12.88131,8.8501 -3.39167,1.57152 -7.18131,3.74791 -8.42144,4.83643 -1.24009,1.08854 -3.67988,2.0741 -5.42171,2.19018 -1.74181,0.11609 -3.69617,0.6716 -4.34304,1.23447 -1.54227,1.34198 -5.97276,1.76384 -5.90654,0.56235 0.0284,-0.51474 1.11332,-1.19453 2.411,-1.51065 1.29769,-0.31613 2.62743,-1.04423 2.95495,-1.61801 0.32754,-0.57379 -2.30324,-0.42338 -5.84618,0.33422 -3.54294,0.75761 -8.37439,0.89713 -10.73655,0.31004 -4.49884,-1.11813 -5.00145,-3.03189 -0.79051,-3.00993 1.3136,0.007 2.781,-0.33912 3.26087,-0.76891 0.47989,-0.42976 1.17274,-0.44616 1.53967,-0.0365 0.36691,0.40972 1.00235,0.44474 1.41206,0.0779 1.71943,-1.53984 -1.3531,-2.43517 -9.99014,-2.91114 -9.50895,-0.52401 -12.02144,-1.5395 -9.4676,-3.82657 0.81944,-0.73383 1.71518,-1.08268 1.99052,-0.77522 0.27537,0.30747 3.27306,0.79429 6.66155,1.08182 3.38849,0.28755 8.03528,1.2605 10.3262,2.16214 3.54069,1.39353 4.51862,1.32291 6.52173,-0.47095 1.29604,-1.16066 2.83416,-2.08505 3.41803,-2.05421 0.58388,0.0308 1.58777,-0.42437 2.23087,-1.01161 1.02462,-0.93557 0.95102,-1.03322 -0.59485,-0.7891 -1.28182,0.20291 -1.50034,0.0367 -0.79919,-0.60614 0.53099,-0.48626 0.45755,-1.03437 -0.16258,-1.21731 -0.62014,-0.18296 -1.71015,0.18918 -2.42226,0.82684 -2.00303,1.79381 -17.70055,-0.0629 -19.73461,-2.33422 -1.47047,-1.64197 0.778,-2.03702 5.43426,-0.95474 4.15817,0.9665 8.94428,0.10909 9.03952,-1.61941 0.0174,-0.31554 -1.90678,-0.74642 -4.27594,-0.95748 -4.81171,-0.42866 -6.55997,-1.61522 -4.34049,-2.94592 0.80933,-0.48524 3.6511,-0.18107 6.31507,0.67592 2.66397,0.85701 5.56498,1.35426 6.44669,1.105 0.8817,-0.24926 3.68494,-0.9953 6.22941,-1.65787 5.11857,-1.33284 5.40899,-2.81559 0.33637,-1.71736 -2.33885,0.50636 -4.00315,0.0381 -6.2138,-1.7479 -1.66065,-1.34173 -3.0083,-2.64007 -2.99479,-2.8852 0.0526,-0.95497 7.17567,-2.86774 9.69258,-2.60278 1.6599,0.17475 3.52818,-0.54222 4.97492,-1.90917 1.59321,-1.50532 4.34875,-2.40598 8.82268,-2.8837 5.48518,-0.5857 6.6516,-1.04702 7.43458,-2.94046 0.51079,-1.23516 2.67394,-4.48949 4.80701,-7.23184 3.16537,-4.06947 4.43418,-5.13268 6.90201,-5.78358 1.66305,-0.43863 4.31869,-1.53597 5.90146,-2.43852 1.58277,-0.90256 3.34611,-1.50285 3.91854,-1.33397 0.57244,0.16887 1.59843,-0.19229 2.27998,-0.80272 1.95608,-1.75174 -2.76005,-0.91135 -7.57089,1.3491 -4.02435,1.89089 -7.00821,0.96809 -4.40571,-1.36262 0.76562,-0.68563 5.31199,-2.8602 10.10305,-4.83236 10.18876,-4.19402 20.18556,-5.39719 27.51272,-3.31131 2.79757,0.79643 10.50818,2.93544 17.13469,4.75339 6.6265,1.81795 13.18397,4.10044 14.57216,5.0722 1.38819,0.97175 4.02353,2.8402 5.85633,4.1521 4.79093,3.42931 13.9256,15.21019 18.73612,24.16373 2.27645,4.237 5.36703,12.04053 6.86799,17.34117 3.29676,11.64259 5.9041,31.51122 5.19642,39.59798 -1.37202,15.6779 -2.36155,21.70645 -4.38109,26.69108 -1.2072,2.97962 -2.63972,7.61891 -3.18338,10.30957 -1.03402,5.1175 -2.65404,9.31882 -11.31293,29.33845 -3.97174,9.18278 -6.3218,13.29531 -9.67375,16.92869 -2.43514,2.6396 -6.15382,7.25611 -8.26372,10.25889 -10.67455,15.19192 -12.32108,17.14844 -18.09473,21.50125 -5.806,4.37724 -5.88674,4.49518 -7.55195,11.03081 -0.92576,3.63342 -2.2918,8.06774 -3.03566,9.85402 -0.74384,1.7863 -1.68386,6.25256 -2.08893,9.92505 -0.9223,8.36188 -1.84767,13.72084 -2.42582,14.04803 -0.24496,0.13869 -1.53423,0.55401 -2.86496,0.92301 z m 6.96206,-37.66218 c -0.47332,-0.026 -0.8967,1.07665 -0.94081,2.4505 -0.0767,2.38798 -0.0389,2.39007 0.86059,0.0475 0.51745,-1.34778 0.55355,-2.47185 0.0802,-2.49793 z m 10.01386,-11.95933 c -0.36692,-0.40972 -1.18975,-0.27692 -1.82851,0.29516 -0.63875,0.57203 -0.65398,1.18974 -0.0338,1.37269 0.62015,0.18295 1.44297,0.0502 1.8285,-0.29516 0.38555,-0.34526 0.40078,-0.96299 0.0338,-1.37269 z m -4.99269,2.46585 c 0.62544,-1.66303 0.61275,-2.55777 -0.0282,-1.9883 -0.6407,0.56974 -1.37534,2.11028 -1.63194,3.42407 -0.607,3.10775 0.22056,2.39203 1.66017,-1.43574 z m 14.75476,-12.5506 c 0.35826,-1.3113 -0.0985,-1.21801 -1.91207,0.39052 -1.31026,1.16264 -3.46062,2.52769 -4.77796,3.03413 -1.35331,0.52029 -2.59666,1.60377 -2.8584,2.49082 -0.35937,1.21815 0.0979,1.36478 2.04035,0.65425 3.25613,-1.19105 6.9127,-4.39063 7.50808,-6.56972 z m -1.41668,-4.04674 c -3.89764,1.18026 -6.83932,3.82153 -5.68794,5.10721 0.58341,0.65146 3.77023,-1.21918 7.47882,-4.39002 2.27467,-1.94484 2.26988,-1.94673 -1.79082,-0.71712 z m -13.85314,8.31982 c 0.609,-2.01927 1.59032,-4.10397 2.18068,-4.63265 0.87752,-0.78586 6.05418,-9.27784 6.05468,-9.93235 7e-5,-0.1036 -0.49947,-1.25112 -1.11012,-2.55002 l -1.11027,-2.36167 -0.32736,3.43858 c -0.19014,1.99744 -1.32513,4.42037 -2.70812,5.7812 -1.30941,1.28848 -2.38271,3.01503 -2.38505,3.83685 -0.007,2.37021 -1.82317,5.16782 -2.39702,3.69183 -0.26857,-0.69076 -0.97612,-2.32922 -1.57237,-3.64103 -1.03275,-2.27218 -1.07667,-2.20106 -0.92732,1.50163 0.0863,2.13771 0.47888,4.69371 0.87257,5.68 0.39367,0.98629 0.1913,1.88695 -0.44966,2.00146 -0.64098,0.11453 -0.69737,0.73084 -0.12538,1.36956 1.39981,1.56307 2.67261,0.23347 4.00476,-4.1834 z m 14.69729,-13.15669 c -0.11374,-0.63648 -0.72934,-0.68923 -1.36812,-0.11719 -0.63875,0.57204 -0.86117,1.3753 -0.49425,1.78501 0.36692,0.40973 0.98257,0.46246 1.3681,0.11719 0.38555,-0.34526 0.60796,-1.14852 0.49427,-1.78501 z m 21.97927,-19.7556 c 0.30928,-1.09049 -1.44763,0.0151 -5.19653,3.2703 -9.54218,8.28537 -11.41635,7.95179 -2.39538,-0.42635 11.79822,-10.95748 12.6279,-13.36632 1.49151,-4.33035 -7.40564,6.00886 -9.98449,8.61536 -12.50587,12.63992 -1.74704,2.78853 -2.99759,5.27066 -2.77903,5.51585 1.55341,1.74211 20.31005,-12.87825 21.3853,-16.66938 z m -25.52759,20.38339 c -0.10226,-0.57255 1.14508,-2.96583 2.77192,-5.31843 1.62684,-2.3526 2.6629,-4.2937 2.30236,-4.31357 -1.04303,-0.0575 -7.51121,10.56514 -6.8695,11.2817 0.76075,0.84949 2.03284,-0.31952 1.79522,-1.6497 z m -17.87846,1.78099 c -0.36095,-0.41506 -0.69912,1.54011 -0.75149,4.34483 -0.0524,2.80473 0.25942,5.4955 0.69286,5.97949 0.43346,0.48401 0.77163,-1.47117 0.75149,-4.34482 -0.0199,-2.87367 -0.3319,-5.56444 -0.69286,-5.9795 z m 25.69619,-15.62892 c -0.11374,-0.63648 -0.56173,-0.83932 -0.99564,-0.45075 -0.43389,0.38858 -0.48869,1.04173 -0.12177,1.45145 0.36692,0.40972 0.81495,0.61255 0.99562,0.45076 0.18069,-0.16181 0.23548,-0.81497 0.12179,-1.45146 z m 14.48569,-14.5534 c -3.77015,2.79774 -7.15202,5.76674 -7.51527,6.59777 -0.88573,2.02635 7.4398,-4.11663 11.31604,-8.34952 2.61835,-2.85925 2.07611,-2.60934 -3.80077,1.75174 z m -23.68981,18.67683 c -0.22334,-2.37643 -0.97169,-4.0944 -1.99808,-4.58696 -1.38965,-0.66687 -1.54574,-0.56439 -1.01909,0.66914 0.34205,0.80114 0.94166,3.13352 1.33248,5.18304 0.90099,4.72503 2.1589,3.78034 1.68469,-1.26522 z m 16.20666,-15.36581 c 3.02417,-6.10638 1.22478,-4.29216 -2.99815,3.02283 -2.56582,4.44458 -3.04776,5.74785 -1.38931,3.75709 1.39661,-1.67646 3.37096,-4.72743 4.38746,-6.77992 z m 21.21836,-20.95089 2.35112,-5.61893 -5.73064,5.59263 c -5.15369,5.02958 -5.41587,5.18954 -2.60418,1.58894 9.32982,-11.94764 10.25287,-14.65788 2.28881,-6.72033 -4.03826,4.02482 -6.32269,5.82268 -6.4553,5.08034 -0.11459,-0.6415 -0.57187,-0.53094 -1.03542,0.2504 -0.45661,0.76961 -1.20182,2.02518 -1.65605,2.79016 -0.60755,1.02321 -0.32917,1.57231 1.05316,2.07721 1.58691,0.57964 1.55289,1.00079 -0.21889,2.70898 -1.15389,1.11242 -2.21328,3.11834 -2.35426,4.45751 -0.14099,1.33919 -0.98419,3.0867 -1.8738,3.88338 -0.8896,0.79668 -1.3472,1.75031 -1.01687,2.11915 0.33032,0.36886 3.81823,-2.31311 7.75089,-5.95991 6.037,-5.59817 7.5164,-7.50543 9.50143,-12.24949 z m -8.20803,8.82213 c -0.38858,-0.43391 -0.91366,-0.17707 -1.16686,0.57072 -0.35286,1.04209 -0.45431,0.9593 -0.43438,-0.35447 0.0143,-0.94275 0.5921,-1.81523 1.28406,-1.93884 1.57827,-0.28189 2.76318,0.95371 1.76863,1.84436 -0.40973,0.36693 -1.06287,0.31212 -1.45145,-0.12177 z m -35.34495,32.48256 c -0.1618,-0.18069 -0.81495,-0.23548 -1.45144,-0.12179 -0.63648,0.11374 -0.83933,0.56174 -0.45075,0.99564 0.38857,0.43389 1.04172,0.4887 1.45143,0.12179 0.40973,-0.36693 0.61256,-0.81497 0.45076,-0.99564 z m 1.74559,-7.56747 c -1.1078,-3.03728 -2.89036,-5.36231 -7.64859,-9.97619 -3.4123,-3.30875 -6.51709,-5.96125 -6.89954,-5.89444 -0.38247,0.0667 2.21123,3.15344 5.76374,6.85917 4.84983,5.05902 6.67191,7.56045 7.31321,10.03993 0.98356,3.80275 1.33259,4.34944 2.25154,3.52648 0.36523,-0.32707 0.0141,-2.37681 -0.7804,-4.55494 z m -11.54122,8.62096 c -2.00062,-2.234 -2.1146,-2.23324 -1.89162,0.0121 0.1675,1.68639 0.7111,2.45996 1.84764,2.62909 2.384,0.35476 2.39026,-0.0214 0.044,-2.64133 z M 390.99627,353.299 c 0.46195,-2.17724 0.38354,-2.18419 -1.20104,-0.10652 -0.9324,1.22252 -1.61335,2.68135 -1.51322,3.24185 0.28732,1.60835 2.16893,-0.56518 2.71426,-3.13533 z m 6.63515,-4.86641 c -0.46921,-0.0258 -1.13543,0.52309 -1.48044,1.21989 -0.38131,0.76999 -0.0467,0.78844 0.85311,0.047 0.81425,-0.67093 1.09658,-1.241 0.62736,-1.26686 z m 2.6228,-4.22256 c -0.11373,-0.63648 -0.72933,-0.68924 -1.3681,-0.11719 -0.63877,0.57203 -0.86118,1.37529 -0.49425,1.78501 0.36691,0.40972 0.98256,0.46245 1.36809,0.11719 0.38555,-0.34526 0.60796,-1.14852 0.49426,-1.78501 z m -28.69754,16.67142 c -1.69064,-1.88784 -3.07182,-3.1826 -3.06928,-2.87726 0.0104,1.25608 5.58398,8.20519 5.85208,7.29641 0.1601,-0.54269 -1.09217,-2.53131 -2.7828,-4.41915 z m 16.22215,-11.57543 c -0.43476,-0.024 -0.48104,0.76251 -0.10286,1.74772 0.54653,1.42374 0.70872,1.43267 0.79048,0.0436 0.0565,-0.96126 -0.2529,-1.76732 -0.68762,-1.79128 z m 6.37682,-3.66162 c -0.9703,0.15303 -2.09934,0.57878 -2.50905,0.9457 -0.40972,0.36693 0.0489,0.54176 1.01916,0.38857 0.9703,-0.15303 2.09934,-0.57878 2.50904,-0.9457 0.40973,-0.36692 -0.0489,-0.54176 -1.01915,-0.38857 z m 1.09279,-4.67021 c -1.67208,-1.77374 -1.80791,-1.76675 -1.19291,0.0616 0.4099,1.21856 0.28567,1.65038 -0.30343,1.05479 -0.54863,-0.55462 -1.01928,-0.61223 -1.04597,-0.12796 -0.068,1.23335 2.73106,2.53418 3.66097,1.70141 0.42258,-0.37844 -0.0808,-1.58883 -1.11865,-2.68977 z m 20.2937,-17.16707 c -0.11722,-0.65636 -1.03185,-0.41831 -2.11304,0.54994 -1.04847,0.93894 -2.1909,1.3894 -2.53875,1.00099 -0.74122,-0.82769 -3.80676,4.30856 -3.52221,5.90143 0.10248,0.57381 2.03011,-0.60786 4.28356,-2.62592 2.25344,-2.01806 4.00416,-4.18995 3.89044,-4.82644 z m 3.1725,-8.37421 c 0.0728,-0.77049 -0.55679,-0.68019 -1.56721,0.22471 -1.35007,1.20903 -1.86195,1.12862 -2.55045,-0.40073 -1.10106,-2.44575 -2.21675,-1.46369 -2.23464,1.96698 -0.008,1.46461 -0.46562,3.42842 -1.01771,4.36402 -0.55211,0.93559 -0.59442,1.82188 -0.094,1.9695 1.13503,0.33486 7.29838,-6.37385 7.46402,-8.12445 z m 0.4298,-5.59088 c 0.91654,-1.97448 0.91654,-1.97448 -0.57335,-0.64023 -0.81943,0.73385 -1.90233,2.22277 -2.40643,3.30874 -0.91653,1.97449 -0.91653,1.97449 0.57336,0.64023 0.81943,-0.73384 1.90233,-2.22277 2.40642,-3.30874 z m -31.78779,24.18847 c -0.76998,-0.3813 -0.78842,-0.0467 -0.047,0.85312 0.67093,0.81424 1.24099,1.09657 1.26685,0.62735 0.0259,-0.46924 -0.52309,-1.13543 -1.21989,-1.48045 z m 30.93366,-27.39066 c 1.55426,-1.97439 3.3243,-4.71964 3.93342,-6.10053 0.92689,-2.10125 0.50277,-1.84145 -2.60058,1.59296 -4.29564,4.75386 -7.32085,9.81279 -6.4497,10.78556 0.33246,0.37125 0.98394,-0.0818 1.44772,-1.00661 0.46377,-0.92487 2.1149,-3.297 3.66914,-5.27138 z m 3.2043,-8.74248 c 1.12891,-0.98132 1.61873,-1.91226 1.08855,-2.06867 -0.53017,-0.15641 -1.63441,0.31602 -2.45384,1.04988 -0.81944,0.73384 -1.58291,0.81349 -1.69661,0.17703 -0.38121,-2.13372 -1.40042,-0.10778 -1.93147,3.83909 l -0.52601,3.90951 1.73343,-2.56126 c 0.95339,-1.40869 2.65707,-3.3642 3.78595,-4.34556 z m -10.2242,6.87714 c -0.29942,-1.22915 0.008,-2.33358 0.68416,-2.45429 1.5677,-0.28 1.1374,-2.93142 -0.83869,-5.16767 -2.14609,-2.42864 -2.58723,0.0591 -0.45784,2.58206 0.95504,1.13151 1.23187,1.81241 0.61519,1.51309 -0.70324,-0.34133 -1.19226,0.7449 -1.31178,2.91376 -0.20702,3.75684 0.0286,4.48201 1.13465,3.49153 0.3953,-0.35401 0.47375,-1.64932 0.17432,-2.87848 z m 12.42273,-13.73902 c 0.69313,-1.34078 0.91583,-2.82233 0.49491,-3.29235 -0.53481,-0.59718 -0.83838,-0.37179 -1.00783,0.74831 -0.13339,0.88161 -1.1156,2.98885 -2.1827,4.68278 -1.34272,2.13143 -1.42046,2.65168 -0.25242,1.68943 0.92829,-0.76474 2.2549,-2.48741 2.94804,-3.82817 z m -1.10877,-5.63907 c 1.19736,-2.6787 1.77189,-4.89268 1.27672,-4.91998 -0.49516,-0.0272 -0.94175,0.70231 -0.9924,1.62135 -0.0506,0.91902 -1.08812,2.56295 -2.30549,3.65316 -2.12182,1.90017 -3.35396,6.19106 -2.16047,7.52376 0.31316,0.34969 0.8923,-0.18408 1.28696,-1.18611 0.39469,-1.00202 1.69729,-4.01352 2.89466,-6.69221 z m -76.63982,64.88011 c -1.94534,-0.53896 -1.9649,-0.51852 -0.39577,0.41364 0.90791,0.53935 2.02792,1.34854 2.48891,1.79821 0.60496,0.59009 0.71506,0.47501 0.39577,-0.41363 -0.24331,-0.67717 -1.36333,-1.48636 -2.48891,-1.79822 z m 64.99234,-57.13422 c -0.9521,-0.56185 -1.57531,-1.54957 -1.38493,-2.19494 0.19041,-0.64537 -0.0161,-1.56806 -0.45977,-2.05039 -0.48411,-0.52709 -0.69476,-0.17288 -0.52738,0.88711 0.23175,1.46747 0.0434,1.52319 -1.11946,0.33133 -1.37122,-1.40524 -1.38394,-1.39507 -0.66419,0.53198 0.61863,1.65628 0.29936,1.63921 -2.03336,-0.10871 -1.56811,-1.175 -2.73306,-2.693 -2.6884,-3.50319 0.0532,-0.96492 0.3805,-1.09281 1.00685,-0.39341 0.62993,0.70341 0.85338,0.28422 0.69556,-1.305 -0.12786,-1.28772 -0.6476,-2.59892 -1.15497,-2.91381 -0.50736,-0.31488 -2.91291,-2.41441 -5.34566,-4.66564 -4.42002,-4.09018 -4.42089,-4.09231 -1.20582,-2.95813 1.76958,0.62426 4.48076,2.42477 6.02488,4.00115 1.54409,1.57641 3.65198,3.62006 4.68412,4.54152 1.7997,1.60671 1.81789,1.56291 0.4439,-1.06872 l -1.43272,-2.7441 2.2563,2.34213 c 1.24099,1.28815 2.61412,2.0217 3.05145,1.63006 0.43732,-0.39165 0.0853,-1.13348 -0.78242,-1.64849 -0.86766,-0.51501 -3.51598,-2.42184 -5.88512,-4.23739 -2.36916,-1.81554 -6.33742,-4.21718 -8.81834,-5.33695 -2.48094,-1.11977 -4.5915,-2.48776 -4.69015,-3.03998 -0.0987,-0.55221 -1.53565,-1.46495 -3.19331,-2.0283 l -3.01395,-1.02426 1.86712,1.68387 c 2.93301,2.64513 0.67602,3.34957 -5.75211,1.79528 -3.24579,-0.78481 -6.5403,-1.0465 -7.32114,-0.58149 -0.99223,0.59087 0.66438,1.38131 5.50191,2.62519 3.80687,0.97888 7.27095,2.16988 7.69795,2.64669 0.42702,0.47681 2.71196,1.61479 5.07768,2.52884 2.90958,1.12418 4.80268,2.51183 5.85081,4.28865 1.12085,1.90011 2.17571,2.5993 3.81324,2.5275 1.24506,-0.0545 1.69661,0.0563 1.00346,0.24633 -2.32994,0.63886 -1.61521,4.68784 1.4272,8.08511 2.24991,2.51233 3.09411,2.96262 3.62272,1.93226 0.41439,-0.80767 1.43596,-0.90275 2.56173,-0.23841 1.02986,0.60774 2.04008,0.95487 2.24495,0.7714 0.20486,-0.18346 -0.40651,-0.79325 -1.35862,-1.3551 z m -7.35805,-13.65932 c -0.9173,-1.02429 -1.12346,-1.59475 -0.45816,-1.26767 0.6653,0.3271 1.41582,1.16515 1.66781,1.86237 0.25201,0.6972 -0.29235,0.42961 -1.20965,-0.5947 z m -13.32887,-6.74919 c -1.43371,-0.94892 -1.59722,-1.32659 -0.54937,-1.26883 0.82056,0.0452 1.73914,0.65319 2.04129,1.35105 0.31367,0.72447 -0.32642,0.68919 -1.49192,-0.0822 z m 23.56426,12.09904 c -1.34361,-0.074 -1.53055,0.1101 -0.86552,0.85272 0.4665,0.52092 0.79568,1.90028 0.73147,3.06524 -0.0642,1.16496 0.23028,2.50557 0.65438,2.97914 0.42411,0.47358 0.86611,-0.86329 0.98226,-2.97081 0.16555,-3.00424 -0.15899,-3.85224 -1.50259,-3.92628 z m 9.45722,-7.29153 c 0.77763,-2.68204 -0.26208,-3.98778 -1.36621,-1.71576 -0.4545,0.93524 -1.62496,2.97654 -2.60103,4.53623 -0.97606,1.55969 -1.67221,3.40936 -1.54697,4.11038 0.2873,1.60818 4.61584,-3.83243 5.51421,-6.93085 z m -0.98739,-8.41283 c -0.90427,-1.00975 -3.76592,3.85888 -3.98946,6.78742 -0.208,2.72503 -0.17875,2.7018 2.15726,-1.71325 1.30248,-2.46164 2.12697,-4.74502 1.8322,-5.07417 z m -10.55593,8.17432 c -0.76998,-0.3813 -0.78843,-0.0467 -0.047,0.85314 0.67094,0.81424 1.24101,1.09656 1.26687,0.62734 0.0259,-0.46923 -0.52309,-1.13544 -1.21989,-1.48044 z m 0.45486,-5.94 c -0.29089,-0.3368 -0.66767,-0.14056 -0.83798,0.43674 -0.17029,0.57729 -0.82531,0.89749 -1.45556,0.71156 -0.63025,-0.18593 -0.69059,-0.74582 -0.13416,-1.24416 0.71388,-0.6393 0.24974,-1.58021 -1.57621,-3.19543 -2.53764,-2.24474 -5.5164,-2.32643 -5.12592,-0.14059 0.10874,0.6087 0.7449,0.61667 1.41369,0.0178 0.7641,-0.68428 1.54976,-0.51484 2.11408,0.45593 0.49394,0.84969 0.28255,2.01221 -0.46969,2.58335 -1.91068,1.45065 -0.16294,3.01563 3.64773,3.2663 2.92767,0.19259 3.99006,-1.07467 2.424,-2.89143 z m 7.94259,-4.719 c 1.33709,-3.51809 0.5713,-5.17549 -1.52418,-3.29889 -0.77232,0.69162 -1.20282,2.58734 -0.95666,4.21268 0.52138,3.43933 0.8761,3.30856 2.48084,-0.91379 z m -7.91003,-20.73624 c -0.0954,-0.0991 -2.51352,-1.10499 -5.37341,-2.2354 -3.77302,-1.49132 -4.51616,-1.5625 -2.70826,-0.25941 4.02749,2.9029 6.67527,4.0899 7.49188,3.35858 0.41985,-0.37599 0.68526,-0.7647 0.58979,-0.86377 z m 0.0506,-4.40811 c -0.36692,-0.40972 -0.54177,0.0489 -0.38856,1.01916 0.15303,0.9703 0.57878,2.09933 0.9457,2.50906 0.36692,0.40972 0.54176,-0.0489 0.38856,-1.01916 -0.15303,-0.97029 -0.57878,-2.09934 -0.9457,-2.50906 z m -5.89781,-6.79972 c -0.21753,-0.54352 -3.9359,-2.34817 -8.26305,-4.01035 -5.29765,-2.03499 -6.94196,-2.9741 -5.03391,-2.87504 1.55851,0.081 4.64686,0.82367 6.86302,1.65057 2.21615,0.82689 3.93459,0.97286 3.81874,0.32436 -0.11585,-0.6485 -3.02662,-1.85234 -6.46836,-2.67521 -9.04532,-2.16256 -12.3832,-2.38205 -12.09979,-0.79562 0.15602,0.87325 -0.56831,1.03293 -2.12142,0.46767 -1.32792,-0.48331 -2.65264,-0.28457 -3.03196,0.45505 -0.39513,0.77012 -2.67268,0.9688 -5.50754,0.48043 -5.59631,-0.96408 -6.11083,-1.30889 -4.34907,-2.91461 1.10315,-1.0055 1.03558,-1.13609 -0.45951,-0.88787 -1.11635,0.18532 -1.60862,0.63366 -1.35552,1.23448 0.67877,1.61127 -0.67347,2.04595 -3.78526,1.21678 -3.85259,-1.02655 -3.73249,-1.95947 0.3895,-3.02559 1.81611,-0.46972 3.62375,-1.4811 4.01696,-2.2475 0.90043,-1.75504 3.51702,-1.08705 2.97247,0.75883 -0.27787,0.94192 0.17145,1.07199 1.44436,0.41807 1.27417,-0.65456 1.45907,-1.14864 0.59566,-1.59161 -0.89215,-0.45773 -0.66127,-0.94594 0.8031,-1.69822 1.42472,-0.73191 1.65236,-1.17465 0.74204,-1.44321 -1.92815,-0.56883 -7.72776,1.11273 -8.09161,2.34614 -0.17222,0.58371 -1.70027,1.42008 -3.39568,1.85858 -2.41946,0.62579 -3.69203,1.63263 -5.91576,4.68047 -1.55823,2.13574 -2.75387,3.97171 -2.65697,4.07992 0.0969,0.10822 3.7705,-0.1532 8.16355,-0.58088 4.39306,-0.4277 10.34443,-0.52748 13.22529,-0.22172 2.88085,0.30574 4.87542,0.12371 4.43236,-0.40453 -0.44301,-0.52827 1.21776,-0.68942 3.69068,-0.35819 2.95089,0.39527 4.36872,1.03454 4.1252,1.85997 -0.25784,0.874 0.8762,1.72256 3.7171,2.78142 7.0056,2.61109 14.92482,5.83509 15.26442,6.21429 0.17869,0.19955 -0.36564,0.62583 -1.20964,0.94732 -1.32732,0.50558 -1.16166,0.74787 1.2268,1.7943 l 2.76135,1.20976 -2.056,-4.02993 c -1.13082,-2.21647 -2.23401,-4.47462 -2.45153,-5.01813 z m -3.18367,1.27613 c -1.30932,-0.17614 -3.87792,-1.09359 -5.70801,-2.03876 -1.83008,-0.94516 -3.97128,-1.84321 -4.75822,-1.99563 -0.83808,-0.16234 -1.29972,-0.7214 -1.11438,-1.34959 0.17401,-0.58985 1.58554,-0.37082 3.13672,0.48674 1.55119,0.85755 4.42109,1.91998 6.37756,2.36091 4.01608,0.90514 5.74858,3.03171 2.06634,2.53633 z m -15.30502,-7.76299 c -0.51776,-0.0285 -1.25159,-0.39827 -1.63076,-0.82166 -0.41801,-0.46677 -0.0316,-0.73351 0.98159,-0.67768 0.91903,0.0506 1.65287,0.42038 1.63075,0.82165 -0.0221,0.40125 -0.46382,0.70623 -0.98158,0.67769 z m 24.83731,5.49975 c -0.11375,-0.63648 -0.56175,-0.83933 -0.99565,-0.45075 -0.4339,0.38858 -0.48869,1.04172 -0.12177,1.45145 0.36692,0.40972 0.81495,0.61255 0.99563,0.45075 0.18067,-0.16181 0.23548,-0.81496 0.12179,-1.45145 z m -4.29769,-2.52757 c -0.45269,-0.51748 -1.15773,-0.64118 -1.56745,-0.27427 -0.40972,0.36693 0.0858,1.5844 1.10107,2.70551 1.43848,1.58843 1.78452,1.64894 1.56744,0.27427 -0.15302,-0.97029 -0.64867,-2.18774 -1.10106,-2.70551 z m -8.87,9.58901 c -1.07753,-0.16034 -1.97516,-7.9e-4 -1.99476,0.35465 -0.054,0.97926 2.26138,1.45256 3.16168,0.64631 0.49397,-0.44239 0.0546,-0.8192 -1.16692,-1.00099 z m -10.42842,3.03995 c -1.01325,-0.0559 -1.39961,0.21091 -0.98159,0.67769 0.89048,0.99433 2.5604,1.08635 2.61233,0.14396 0.0222,-0.40127 -0.71169,-0.77103 -1.63074,-0.82165 z m 12.07627,-23.69144 c -0.47434,-0.54167 -1.01157,-0.47797 -1.19452,0.14216 -0.18294,0.62015 0.33026,1.8574 1.14044,2.74948 1.19763,1.31858 1.42098,1.29202 1.19451,-0.14215 -0.15302,-0.97029 -0.66639,-2.20753 -1.14043,-2.74948 z m -7.84144,3.21268 c -0.23741,-0.26509 -3.05247,-0.87902 -6.25571,-1.36428 -3.20323,-0.48526 -6.70515,-1.03579 -7.78203,-1.22341 -1.6842,-0.29344 -1.92226,-0.10364 -1.7025,1.35734 0.21336,1.41854 -0.0868,1.71135 -1.82115,1.77663 -1.78536,0.0672 -1.84645,0.19623 -0.43556,0.92014 1.02284,0.52478 2.04125,0.23732 2.70337,-0.76305 0.95326,-1.44027 2.0038,-1.2437 3.19376,0.59758 0.22669,0.35072 0.628,0.37285 0.89183,0.0492 1.38011,-1.6933 2.73459,-1.8661 6.32491,-0.80692 3.52414,1.03967 6.04906,0.75881 4.88308,-0.54318 z m 2.61657,-7.09596 c -0.76998,-0.3813 -0.78843,-0.0467 -0.047,0.85312 0.67094,0.81424 1.24101,1.09658 1.26687,0.62735 0.0259,-0.46923 -0.52309,-1.13543 -1.21989,-1.48045 z m -2.6685,-2.97978 c -0.77,-0.3813 -0.78845,-0.0467 -0.047,0.85313 0.67092,0.81424 1.24099,1.09658 1.26685,0.62734 0.0259,-0.46923 -0.52308,-1.13543 -1.21988,-1.48045 z m -3.94654,-4.97169 c -2.61587,-1.6055 -2.61676,-1.58936 -0.0758,1.37532 1.66825,1.94648 2.59774,2.51692 2.64692,1.62455 0.0468,-0.85047 -0.93428,-1.99524 -2.57117,-2.99983 z m -19.22578,4.85336 c -0.98807,0.54556 -2.44154,0.94614 -3.22994,0.89022 -0.98103,-0.0696 -0.58393,-0.5723 1.25828,-1.59288 l 2.69173,-1.4912 -2.93255,0.32152 c -1.6129,0.17687 -4.75478,1.66287 -6.98195,3.30232 -4.55006,3.34936 -17.84341,18.26506 -15.98206,17.93255 1.56003,-0.27864 7.79658,-6.25711 9.44679,-9.05581 0.91402,-1.55013 1.35122,-1.79015 1.52175,-0.83545 0.13165,0.73673 -0.39158,1.90452 -1.16265,2.59505 -0.77108,0.69052 -1.33042,1.6445 -1.243,2.11994 0.0875,0.47543 4.26547,-2.74515 9.28452,-7.15687 5.01907,-4.41169 8.31714,-7.57493 7.32908,-7.02939 z m -9.37954,4.51605 -3.21234,0.90985 2.96111,-1.89304 c 1.62859,-1.04116 3.58461,-1.85867 4.34669,-1.81667 2.05929,0.11348 -0.29613,1.72377 -4.09546,2.79986 z m -12.76716,5.27658 c 0.18665,-2.29919 0.0719,-2.46148 -1.03789,-1.46763 -0.68627,0.61458 -0.94756,1.45264 -0.58063,1.86236 0.36691,0.40972 -0.003,1.34535 -0.82276,2.07919 -0.81943,0.73384 -1.254,1.59766 -0.96572,1.91957 0.97029,1.08348 3.19532,-1.7858 3.407,-4.39349 z m 23.24593,-18.30843 c -0.1266,-0.14136 -1.51999,-0.25267 -3.09644,-0.24737 -2.85612,0.01 -2.85731,0.0124 -0.33559,0.76368 2.15069,0.64079 4.1931,0.33354 3.43203,-0.51631 z m -17.4544,11.9879 c -0.38856,-0.43389 -0.0756,-0.92758 0.6955,-1.09708 0.98116,-0.21564 0.95145,-0.35357 -0.099,-0.45938 -0.82551,-0.0832 -2.09582,0.7476 -2.8229,1.84614 -0.98773,1.49235 -0.92792,1.93159 0.23652,1.73723 2.12146,-0.3541 2.83607,-1.08198 1.98985,-2.02691 z m 3.60223,-12.0009 c -6.49301,-0.12032 -7.4865,-1.71603 -1.56363,-2.51146 5.33294,-0.71621 6.44174,-1.43797 2.7983,-1.82151 -1.47542,-0.15531 -2.95097,-0.0421 -3.279,0.25171 -0.32801,0.29376 -2.64506,0.80592 -5.14899,1.13816 -5.37205,0.71277 -17.14642,4.13979 -21.07772,6.13481 -2.33957,1.18727 -2.42943,1.34873 -0.57964,1.04142 1.20404,-0.20001 5.71053,-0.90142 10.0144,-1.5587 4.30386,-0.65749 8.84819,-1.57041 10.09846,-2.02929 2.42363,-0.88954 4.27245,0.14641 2.69445,1.50978 -0.52029,0.44957 -2.37114,0.91233 -4.11295,1.02841 -3.78845,0.25248 -4.63761,0.81732 -3.36507,2.23827 0.96513,1.07771 7.2662,-1.10883 9.36229,-3.24878 0.63317,-0.64648 2.64585,-1.04611 4.47257,-0.88815 1.82673,0.15797 3.67379,-0.0448 4.10459,-0.45055 0.43078,-0.40579 -1.55733,-0.78115 -4.41806,-0.83416 z m -48.62444,43.42068 c -0.987,0.54674 -3.13821,1.6859 -4.78049,2.53148 -1.64226,0.84556 -2.73081,1.82229 -2.41905,2.1704 0.65175,0.72777 3.48937,-0.83273 6.74571,-3.70967 1.37843,-1.21781 1.55397,-1.60175 0.45375,-0.9923 z m -14.47046,7.11901 c -2.76691,0.46483 -3.41101,1.66595 -0.77628,1.44764 1.32446,-0.10975 2.42715,-0.54522 2.45042,-0.96776 0.0233,-0.42252 -0.73008,-0.63846 -1.67414,-0.47988 z m 25.17416,-23.83448 c 1.54808,-1.38636 -0.49325,-3.03644 -5.53056,-4.47051 -5.86467,-1.6696 -8.52244,0.0699 -2.85555,1.8691 2.11051,0.67001 4.25033,1.9071 4.75514,2.74908 0.58036,0.96798 -1.64937,0.54536 -6.06421,-1.14941 -4.98464,-1.91353 -8.35794,-2.46757 -11.79157,-1.93668 l -4.80951,0.74365 3.81349,0.39587 c 7.27766,0.75548 14.48304,2.79672 16.05049,4.547 0.88063,0.98335 1.06526,1.85076 0.41852,1.9663 -0.63648,0.11374 -1.73766,-0.44138 -2.44706,-1.23352 -1.50783,-1.68371 -5.33238,-2.38438 -16.25203,-2.9774 -4.36184,-0.23689 -8.4466,-0.72524 -9.07726,-1.08524 -0.63066,-0.36001 -1.66587,0.089 -2.30047,0.99794 -0.96271,1.37876 0.60046,1.72744 9.43746,2.10503 11.4983,0.49133 16.66721,1.58853 17.47505,3.70938 0.60732,1.59435 3.52015,0.15661 6.27771,-3.09863 1.03183,-1.21806 2.33699,-2.62743 2.90036,-3.13195 z m 18.62773,-18.8137 c -9.1048,2.85843 -10.21699,3.65999 -8.20127,5.91082 1.6255,1.8151 1.94545,1.71829 6.60105,-1.9975 2.69102,-2.14779 5.43613,-4.31009 6.10029,-4.80513 0.66414,-0.49503 -1.36089,-0.0937 -4.50007,0.89181 z m -36.91508,33.80629 c -0.37844,-0.42258 -1.45963,-0.44945 -2.40266,-0.0597 -0.94301,0.38974 -3.67707,1.34696 -6.07567,2.12719 -2.39859,0.78021 -4.58813,1.62191 -4.86563,1.87043 -0.86298,0.77285 3.30132,1.06803 4.21417,0.29874 0.47446,-0.39979 2.78354,-1.28008 5.13135,-1.95612 5.099,-1.46826 4.85201,-1.32739 3.99844,-2.28052 z m 5.92032,-5.38084 c -0.96586,-1.07851 -9.83991,-3.08306 -10.63968,-2.40339 -0.34484,0.29311 0.85876,0.79394 2.67472,1.113 1.81596,0.31909 4.01177,1.37301 4.87959,2.34205 0.95779,1.0695 2.01698,1.36864 2.69527,0.7612 0.61458,-0.55038 0.79012,-1.36617 0.39011,-1.81285 z m 2.18685,-2.05494 c -1.25225,-1.39832 -10.27689,-4.00277 -11.15257,-3.21857 -0.44108,0.39501 1.10657,1.08296 3.43925,1.52879 2.33266,0.44582 4.86165,1.50341 5.61997,2.35018 0.75832,0.84677 1.714,1.23939 2.12371,0.87247 0.40973,-0.36692 0.39607,-1.05672 -0.0303,-1.53286 z m 18.6879,-16.60639 c -0.39103,-0.43665 -1.63868,-1.13155 -2.77253,-1.54423 -1.14765,-0.4177 -1.76014,-1.02024 -1.38161,-1.35921 0.92185,-0.82557 3.49002,-0.34603 5.58152,1.04222 0.94699,0.62856 0.46645,-0.14923 -1.06785,-1.72846 -2.59728,-2.67329 -2.6456,-2.96918 -0.70304,-4.28877 1.1476,-0.77961 4.14129,-2.09409 6.65261,-2.92107 6.86823,-2.26166 5.55765,-3.07558 -1.62438,-1.00881 -10.84951,3.12218 -21.47582,9.99657 -14.36027,9.29 2.50645,-0.24888 8.01801,4.09104 6.6974,5.27369 -0.38646,0.34609 -1.28002,-0.0155 -1.98573,-0.80348 -1.587,-1.77212 -8.86156,-2.90616 -10.31169,-1.6075 -0.8513,0.76237 -0.23007,1.27806 3.08063,2.55723 2.28082,0.88125 4.60924,2.11846 5.17423,2.74936 0.77275,0.86289 1.85782,0.40331 4.37951,-1.85498 1.87606,-1.68008 3.03915,-3.35169 2.64125,-3.79599 z M 352.346,197.44945 c -1.6327,-0.83768 -13.4109,2.2333 -13.48156,3.51511 -0.0284,0.51614 0.35941,0.57028 0.86186,0.12029 0.50248,-0.44997 3.82849,-1.04849 7.39116,-1.33004 6.48074,-0.51214 7.68702,-1.04401 5.22854,-2.30536 z m -62.09148,56.15809 c -0.91058,-1.01679 -3.42508,-0.62068 -7.64673,1.20459 -2.12894,0.92047 -4.5783,1.74302 -5.44302,1.82789 -0.86473,0.0849 -1.59145,0.50312 -1.61494,0.92945 -0.0384,0.6978 13.10888,-1.90131 14.65196,-2.89658 0.35098,-0.2264 0.37472,-0.7058 0.0527,-1.06535 z m 11.96205,-11.21248 c -3.29461,-1.06908 -10.78036,-2.0916 -11.38014,-1.55447 -0.36104,0.32334 -3.14287,1.00235 -6.18181,1.50892 -6.09984,1.01682 -9.04363,2.61731 -5.72285,3.11147 1.06043,0.15781 2.28268,-0.0307 2.71611,-0.41876 1.6379,-1.46681 15.44425,-2.90161 17.83636,-1.85359 1.37386,0.6019 2.86013,0.77 3.3028,0.37355 0.4427,-0.39643 0.18598,-0.92162 -0.57046,-1.16708 z m -8.00878,2.19281 c -2.50439,0.0579 -5.05627,0.55552 -5.67085,1.10589 -0.66397,0.5946 0.7304,0.958 3.43601,0.8955 2.50439,-0.0579 5.05627,-0.5555 5.67085,-1.10588 0.66397,-0.59462 -0.73041,-0.958 -3.43601,-0.89551 z m 85.794,122.72586 c -0.477,-0.53263 -0.82916,-1.65992 -0.78258,-2.50507 0.24016,-4.3581 -19.15282,-24.22907 -26.0535,-26.69566 -7.63126,-2.72774 -10.22682,-4.3102 -10.30098,-6.28031 -0.0401,-1.06668 0.33308,-2.3031 0.82939,-2.74756 2.28238,-2.04397 23.12463,5.39678 26.55575,9.48049 l 1.75152,2.08472 -2.72291,-1.58868 c -1.49759,-0.87377 -3.11317,-1.84324 -3.59018,-2.15437 -5.34155,-3.48406 -18.35185,-7.05688 -20.07571,-5.51308 -0.83006,0.74335 -0.66308,1.26392 0.58538,1.82494 9.40453,4.22615 18.04668,9.99635 23.40036,15.62397 5.97912,6.28507 13.22287,17.69082 11.95594,18.82539 -0.37686,0.3375 -1.07548,0.17786 -1.55248,-0.35478 z m 2.14261,-5.20764 c -1.56774,-1.8987 -2.82196,-5.78826 -1.42747,-4.42677 0.83369,0.81402 0.97967,0.58517 0.64877,-1.01728 -0.23486,-1.13713 -0.79739,-2.08793 -1.25016,-2.11289 -0.45276,-0.0249 -0.8495,-0.7433 -0.8816,-1.59635 -0.0322,-0.85304 -1.68855,-3.80475 -3.68098,-6.55932 -1.99245,-2.75457 -3.3204,-5.27897 -2.95101,-5.60978 0.82438,-0.73827 6.47483,7.07546 7.16482,9.9079 0.27492,1.12852 0.93699,2.40862 1.47126,2.84467 1.43109,1.16795 3.61193,8.49605 2.75643,9.26218 -0.40422,0.362 -1.23674,0.0505 -1.85006,-0.69236 z m -11.40512,-14.87852 c -5.3303,-5.95204 -7.5463,-8.88852 -6.19521,-8.20943 3.24567,1.63135 15.92919,16.19753 14.90133,17.1132 -0.22405,0.19961 -4.14182,-3.80708 -8.70612,-8.90377 z m 27.61096,-12.49696 c -0.4286,-0.96858 -1.57517,-2.66012 -2.54792,-3.75895 -1.22187,-1.38028 -1.29859,-1.86502 -0.2481,-1.5681 1.18291,0.33438 1.3275,0.0559 0.65119,-1.25436 -1.18186,-2.28977 -3.09647,-3.25849 -3.53074,-1.78643 -0.21196,0.71847 -0.45339,0.65807 -0.59766,-0.1495 -0.13313,-0.74521 0.24273,-1.44154 0.83525,-1.54738 0.59251,-0.10581 0.089,-1.3063 -1.11885,-2.66768 -1.54162,-1.73762 -1.71918,-2.34014 -0.5957,-2.02187 2.88137,0.81624 9.8455,11.50303 8.28058,12.70693 -0.38827,0.29869 -0.62558,1.27777 -0.52733,2.17575 0.13149,1.2016 -0.0271,1.1677 -0.60068,-0.12842 z m -3.64992,1.0293 c -0.36693,-0.40972 -0.31213,-1.06287 0.12177,-1.45145 0.43391,-0.38858 0.88193,-0.18575 0.99564,0.45075 0.11373,0.63649 0.0589,1.28964 -0.12179,1.45145 -0.18067,0.16181 -0.62871,-0.041 -0.99562,-0.45075 z m -3.72898,-5.64242 c -1.03664,-1.14557 -2.8433,-2.73467 -4.01562,-3.53059 -1.42751,-0.96921 -1.66368,-1.42272 -0.71505,-1.37321 1.98468,0.10362 7.30161,4.65925 6.92555,5.93396 -0.1709,0.5793 -1.1586,0.11572 -2.19488,-1.03016 z m -15.62306,5.0186 c -0.87145,-0.97308 -2.78757,-2.73053 -4.25807,-3.90545 -2.01105,-1.60681 -2.21955,-2.01186 -0.84139,-1.63443 2.90985,0.79691 8.50812,5.67544 7.52403,6.55672 -0.46208,0.41383 -1.55314,-0.0438 -2.42457,-1.01684 z m 9.4423,-7.0556 c -2.77608,-1.36182 -4.23025,-3.29758 -2.40151,-3.19681 0.8424,0.0464 2.12651,0.98051 2.85358,2.07573 1.16394,1.75332 1.10989,1.88732 -0.45207,1.12108 z m 4.55362,-4.41562 c -0.74141,-0.89985 -0.72299,-1.23444 0.047,-0.85314 0.69678,0.34504 1.24572,1.01125 1.21989,1.48045 -0.0259,0.46923 -0.59595,0.18692 -1.26686,-0.62735 z m -6.4541,-1.07652 c -3.19288,-3.53771 -10.25945,-7.2782 -15.43447,-8.1697 -5.70761,-0.98325 -5.35905,-2.44848 0.38848,-1.633 5.69641,0.80824 17.93644,8.46984 17.24976,10.79745 -0.1778,0.60271 -1.16367,0.15774 -2.20377,-0.99475 z m 2.28738,-3.80564 c -1.28423,-1.43403 -1.65628,-2.15795 -0.8268,-1.60875 0.82948,0.54921 1.88021,1.72249 2.33495,2.6073 0.45473,0.88481 -0.22393,0.43547 -1.50815,-0.99855 z m -8.31958,4.14079 c -1.93753,-1.16845 -3.50739,-2.40374 -3.48858,-2.7451 0.0537,-0.97427 5.28149,1.98434 6.19319,3.50495 0.44999,0.75053 -0.76709,0.4086 -2.70461,-0.75985 z m -45.54265,35.41354 c -7.33497,-2.67782 -10.32251,-4.50876 -8.02626,-4.91896 1.96635,-0.35129 13.6634,4.59036 14.5855,6.16191 0.51866,0.88396 -2.08451,0.39071 -6.55924,-1.24295 z m 20.98972,-11.45798 c -0.36692,-0.40973 -0.3319,-1.04516 0.0779,-1.41208 0.40972,-0.36692 1.04515,-0.3319 1.41207,0.0778 0.36692,0.40972 0.33191,1.04515 -0.0779,1.41208 -0.40971,0.36692 -1.04515,0.33189 -1.41207,-0.0778 z m 1.00926,-5.14072 c -1.62205,-1.01612 -3.8029,-2.2911 -4.84634,-2.83329 -1.29049,-0.67056 -1.43932,-0.96652 -0.46543,-0.92557 1.84719,0.0777 8.35554,3.8897 8.30194,4.86253 -0.0225,0.40911 -1.36812,-0.0876 -2.99017,-1.10367 z m 43.41084,-41.04009 c -2.28964,-1.4431 -4.3299,-2.77637 -4.53387,-2.96287 -0.20394,-0.18652 -1.64966,-0.70404 -3.21261,-1.15012 -1.56297,-0.44608 -5.16682,-1.59483 -8.00858,-2.55279 -2.84175,-0.95795 -6.49771,-1.39751 -8.12432,-0.97679 -3.66758,0.9486 -8.3002,0.52223 -8.86757,-0.81614 -0.23403,-0.55204 2.05195,-0.9354 5.07995,-0.85187 3.02801,0.0835 6.19187,-0.11655 7.03082,-0.44439 0.83897,-0.32787 3.77195,0.2634 6.51777,1.31394 2.74579,1.05053 6.74707,2.06679 8.8917,2.25835 3.63453,0.32467 4.15498,0.72971 2.36647,1.84166 -0.87705,0.54528 4.11627,4.30115 6.16814,4.63954 0.89661,0.14787 1.34982,0.64844 1.16207,1.28411 -0.16898,0.57282 -2.18061,-0.13923 -4.47026,-1.58231 z m -37.03618,37.06358 c -0.78589,-0.23185 -1.40787,-0.80288 -1.38219,-1.26897 0.0696,-1.26376 1.67467,-0.9342 2.28202,0.46856 0.42559,0.98296 0.24957,1.13951 -0.89981,0.80045 z m 27.46816,-26.39842 c -2.6781,-1.77255 -2.32255,-2.30466 0.66526,-0.99568 1.38635,0.60738 2.23169,1.36308 1.87854,1.67933 -0.35316,0.31627 -1.49786,0.009 -2.5438,-0.68365 z m -41.86478,35.17978 c -0.34072,-0.38046 -1.64827,-0.74843 -2.9057,-0.81772 -1.2574,-0.0693 -2.26213,-0.56282 -2.23271,-1.0967 0.0294,-0.5339 1.4396,-0.71087 3.13372,-0.39329 3.45827,0.6483 4.46857,1.3477 3.36911,2.33231 -0.40972,0.36691 -1.02371,0.35585 -1.36442,-0.0246 z m 19.69287,-18.48212 c -0.57204,-0.63876 -0.51929,-1.2544 0.11719,-1.36809 0.63649,-0.11375 1.43974,0.10871 1.78501,0.49425 0.34526,0.38554 0.29253,1.00118 -0.11719,1.3681 -0.40973,0.36692 -1.21297,0.14453 -1.78501,-0.49426 z m 16.0573,-16.17114 c -1.36808,-0.0849 -2.89755,-0.61235 -3.39881,-1.17207 -0.67357,-0.75213 -0.49804,-0.99489 0.67278,-0.93038 0.87126,0.048 1.97496,-0.57452 2.45264,-1.38342 0.71936,-1.21814 0.80149,-1.17597 0.47821,0.24553 -0.32338,1.422 -0.043,1.76793 1.63573,2.01772 2.7629,0.41115 1.25231,1.41458 -1.84055,1.22262 z m 9.17464,-10.43407 c -2.02417,-0.96453 -3.66441,-2.04251 -3.64495,-2.39553 0.0194,-0.35301 1.69152,0.1473 3.7157,1.11182 2.02416,0.96452 3.6644,2.0425 3.64494,2.39552 -0.0194,0.353 -1.69152,-0.14731 -3.71569,-1.11181 z m -25.51287,23.35945 c -1.35112,-0.51446 -3.81903,-1.0744 -5.48427,-1.24431 -1.66522,-0.16992 -2.63878,-0.65723 -2.16345,-1.08291 1.02717,-0.91987 10.21185,1.31046 10.14827,2.46431 -0.0242,0.43907 -1.14945,0.37737 -2.50055,-0.13709 z m -24.95856,12.4628 c -3.58858,-0.20629 -4.86091,-0.69787 -4.79722,-1.85349 0.12103,-2.19637 1.9614,-2.29626 6.66279,-0.36167 4.95303,2.03811 4.49593,2.58084 -1.86557,2.21516 z m 34.58827,-30.1415 c -1.28545,-0.13576 -2.99405,-0.51853 -3.7969,-0.85061 -4.82491,-1.99568 -8.55149,-2.48145 -12.41283,-1.61804 -4.76552,1.0656 -7.16194,0.45725 -5.18234,-1.31558 2.11618,-1.89511 8.17233,-2.00545 12.75213,-0.23235 2.3978,0.92833 6.16478,2.03451 8.37108,2.45819 4.16444,0.79969 4.37006,1.99151 0.26889,1.55839 z m 15.58094,-14.41017 c -1.45746,-0.72516 -2.99344,-1.01083 -3.41329,-0.63483 -0.41986,0.37601 -1.06359,0.34842 -1.43051,-0.0613 -1.21818,-1.36026 0.61086,-1.93655 3.60993,-1.13741 1.6272,0.43357 3.16671,1.32016 3.42115,1.97016 0.25444,0.65001 -0.72986,0.58851 -2.18728,-0.13662 z m -11.00221,8.24953 c -3.57305,-0.95208 -3.6509,-1.39931 -0.50392,-2.8944 1.72872,-0.82128 2.00133,-0.76683 1.02594,0.20493 -1.10804,1.10397 -1.00345,1.37176 0.63076,1.61495 1.07752,0.16034 1.93941,0.64903 1.91533,1.08598 -0.0241,0.43692 -1.40473,0.43177 -3.06813,-0.0114 z m 4.33133,-1.49243 c -0.51777,-0.0285 -1.25159,-0.39827 -1.63075,-0.82164 -0.41803,-0.46679 -0.0317,-0.73354 0.98158,-0.6777 0.91903,0.0506 1.65286,0.4204 1.63074,0.82164 -0.0221,0.40127 -0.46382,0.70624 -0.98157,0.6777 z m -31.22822,21.34592 c -2.55293,0.30613 -4.4602,-0.60213 -3.30705,-1.57479 0.31542,-0.26611 1.92418,-0.58506 3.57496,-0.70885 3.66053,-0.2745 3.41217,1.84238 -0.26791,2.28364 z m 15.13729,-12.83204 c -0.38857,-0.4339 -0.18574,-0.88193 0.45075,-0.99563 0.63649,-0.11374 1.28965,-0.0589 1.45145,0.12178 0.16181,0.18068 -0.041,0.62872 -0.45074,0.99564 -0.40973,0.36692 -1.06287,0.3121 -1.45146,-0.12179 z m -11.53923,8.47738 c -2.59687,0.25787 -3.38111,-0.40588 -1.97128,-1.66844 0.57074,-0.51113 1.74236,-0.5678 2.6036,-0.12594 2.10443,1.07971 1.94269,1.53869 -0.63232,1.79438 z m 5.47051,-4.76123 c -0.49142,-0.54875 -3.07891,-1.01509 -5.74998,-1.03636 -3.55163,-0.0283 -4.8333,-0.45876 -4.77028,-1.60235 0.063,-1.1436 1.20303,-1.49441 4.24308,-1.30572 4.41234,0.27386 9.43549,2.91391 7.99638,4.20269 -0.45415,0.40671 -1.22778,0.29049 -1.7192,-0.25826 z m 26.84994,-24.81276 c -0.8856,-0.26126 -1.30443,-1.03152 -1.04291,-1.91796 0.36008,-1.22057 0.0804,-1.53444 -1.58877,-1.78307 -1.11456,-0.1656 -1.70381,-0.59005 -1.30969,-0.94301 0.39412,-0.35295 1.87026,-0.13629 3.2803,0.48147 3.09152,1.35442 3.58786,1.82504 2.18842,2.07503 -0.58213,0.10396 -0.83093,0.71448 -0.55291,1.35661 0.37905,0.87547 0.13533,1.05832 -0.97444,0.73093 z m -15.89503,11.56311 c -0.33068,-0.36925 -2.31308,-0.32917 -4.40534,0.0891 -4.46944,0.89345 -11.27967,-0.37115 -10.79765,-2.00504 0.18094,-0.61334 1.91969,-0.87621 3.86388,-0.58422 5.19008,0.77958 10.39391,0.98152 12.95839,0.50283 2.17989,-0.40686 2.2007,-0.36914 0.61882,1.1238 -0.90031,0.84964 -1.90744,1.24273 -2.2381,0.87349 z m 6.61835,-10.59723 c -7.42853,0.6942 -11.35529,0.18961 -11.26508,-1.44761 0.0683,-1.23961 16.44377,-1.76342 17.52108,-0.56045 0.88183,0.9847 -0.68427,1.48738 -6.256,2.00806 z m 16.34727,-22.30233 c -3.01075,-1.26295 -9.83334,-2.44418 -16.41833,-2.84258 -6.90892,-0.41799 -11.23907,-1.18727 -11.19489,-1.98888 0.0695,-1.26143 12.59725,-1.35886 13.71862,-0.10673 0.28092,0.31369 2.40056,0.80339 4.7103,1.08822 2.85411,0.35196 4.46252,0.005 5.02037,-1.08197 0.74305,-1.44827 0.48507,-1.66925 -2.72306,-2.33231 -1.94914,-0.40285 -3.45557,-0.23804 -3.34763,0.36621 0.30769,1.72213 -1.97905,1.66037 -6.7091,-0.18124 -2.39371,-0.93199 -6.0116,-1.50859 -8.03976,-1.28137 -2.02816,0.22721 -3.96732,0.10078 -4.30926,-0.28107 -1.07092,-1.19582 1.1447,-2.31396 4.6352,-2.33922 4.92191,-0.0354 20.81447,2.27708 21.58869,3.14164 0.36599,0.40866 2.73806,1.62187 5.27129,2.69601 2.53321,1.07415 4.56297,2.42121 4.51057,2.99348 -0.0524,0.57226 -0.68256,0.71986 -1.40033,0.32801 -0.96514,-0.52688 -1.1561,-0.101 -0.73317,1.63512 0.53594,2.20008 0.24815,2.21181 -4.57951,0.18666 z m -0.46722,-4.8961 c -2.28653,-0.83219 -3.75319,0.38568 -2.8835,2.39439 0.28115,0.64933 1.19383,0.52495 2.0995,-0.28607 1.30067,-1.1648 1.79842,-1.04216 2.64497,0.65168 0.89412,1.78902 0.99338,1.79837 0.69617,0.0655 -0.25081,-1.4624 -0.9576,-2.24334 -2.55718,-2.82548 z m -12.50236,-3.50604 c -0.36693,-0.40973 -1.02215,-0.42702 -1.45604,-0.0385 -0.4339,0.38859 -0.28152,0.85619 0.33862,1.03914 0.62014,0.18295 1.27536,0.20025 1.45603,0.0385 0.18069,-0.16181 0.0283,-0.62941 -0.33861,-1.03913 z m 15.7718,-4.24858 c -2.07909,-1.0667 -1.92754,-2.56366 0.19846,-1.9603 2.12837,0.60403 2.88174,1.40756 2.03265,2.16796 -0.36588,0.32766 -1.36989,0.23427 -2.23113,-0.20764 z m -10.30509,7.85467 c -0.51776,-0.0285 -1.25159,-0.39827 -1.63075,-0.82165 -0.41802,-0.46679 -0.0317,-0.73353 0.98158,-0.67769 0.91904,0.0506 1.65287,0.42038 1.63075,0.82165 -0.0221,0.40126 -0.46382,0.70622 -0.98158,0.67769 z m -52.74355,-32.41402 c 1.93209,-3.29368 6.67245,-7.53887 7.44942,-6.67129 0.38068,0.4251 -1.36051,2.50335 -4.05527,4.84025 -3.50957,3.04352 -4.38126,3.51379 -3.39415,1.83104 z m -55.50703,22.77156 c -0.66141,-0.19512 -1.18387,-0.69383 -1.16103,-1.10825 0.0558,-1.0115 2.35065,-1.3724 3.13776,-0.49351 0.85257,0.95202 -0.49042,2.04022 -1.97674,1.60172 z"
       id="path4359"
       inkscape:connector-curvature="0" />
  </g>
</svg>
