<?xml version="1.0" encoding="UTF-8" standalone="no"?>
<!-- Created with Inkscape (http://www.inkscape.org/) -->

<svg
   xmlns:dc="http://purl.org/dc/elements/1.1/"
   xmlns:cc="http://creativecommons.org/ns#"
   xmlns:rdf="http://www.w3.org/1999/02/22-rdf-syntax-ns#"
   xmlns:svg="http://www.w3.org/2000/svg"
   xmlns="http://www.w3.org/2000/svg"
   xmlns:sodipodi="http://sodipodi.sourceforge.net/DTD/sodipodi-0.dtd"
   xmlns:inkscape="http://www.inkscape.org/namespaces/inkscape"
   width="199.53043"
   height="221.8681"
   viewBox="0 0 199.53043 221.8681"
   id="svg2"
   version="1.1"
   inkscape:version="0.91 r13725"
   sodipodi:docname="ccn-lite-feather.svg"
   inkscape:export-filename="/home/koala/ccn-lite/doc/ccn-lite-feather-40x44.png"
   inkscape:export-xdpi="17.515654"
   inkscape:export-ydpi="17.515654">
  <defs
     id="defs4">
    <marker
       inkscape:stockid="Arrow1Lstart"
       orient="auto"
       refY="0"
       refX="0"
       id="Arrow1Lstart"
       style="overflow:visible"
       inkscape:isstock="true">
      <path
         id="path4378"
         d="M 0,0 5,-5 -12.5,0 5,5 0,0 Z"
         style="fill:#000000;fill-opacity:1;fill-rule:evenodd;stroke:none;stroke-width:1pt;stroke-opacity:1"
         transform="matrix(0.8,0,0,0.8,10,0)"
         inkscape:connector-curvature="0" />
    </marker>
  </defs>
  <sodipodi:namedview
     id="base"
     pagecolor="#ffffff"
     bordercolor="#666666"
     borderopacity="1"
     inkscape:pageopacity="0"
     inkscape:pageshadow="2"
     inkscape:zoom="1.4"
     inkscape:cx="80.880266"
     inkscape:cy="152.80057"
     inkscape:document-units="px"
     inkscape:current-layer="layer3"
     showgrid="false"
     fit-margin-top="2"
     fit-margin-left="2"
     fit-margin-right="2"
     fit-margin-bottom="2"
     inkscape:window-width="1871"
     inkscape:window-height="1056"
     inkscape:window-x="49"
     inkscape:window-y="24"
     inkscape:window-maximized="1"
     units="px" />
  <metadata
     id="metadata7">
    <rdf:RDF>
      <cc:Work
         rdf:about="">
        <dc:format>image/svg+xml</dc:format>
        <dc:type
           rdf:resource="http://purl.org/dc/dcmitype/StillImage" />
        <dc:title></dc:title>
      </cc:Work>
    </rdf:RDF>
  </metadata>
  <g
     inkscape:groupmode="layer"
     id="layer2"
     inkscape:label="Text"
     style="display:none"
     transform="translate(-264.47933,-149.03933)">
    <text
       xml:space="preserve"
       style="font-style:normal;font-variant:normal;font-weight:bold;font-stretch:normal;font-size:41.83421707px;line-height:125%;font-family:sans-serif;-inkscape-font-specification:'sans-serif Bold';letter-spacing:0px;word-spacing:0px;fill:#4242f9;fill-opacity:1;stroke:none;stroke-width:1px;stroke-linecap:butt;stroke-linejoin:miter;stroke-opacity:1"
       x="-113.57354"
       y="321.23718"
       id="text3347"
       sodipodi:linespacing="125%"
       transform="scale(1.003361,0.99665025)"><tspan
         sodipodi:role="line"
         id="tspan3349"
         x="-113.57354"
         y="321.23718"
         style="font-style:normal;font-variant:normal;font-weight:bold;font-stretch:normal;font-size:203.94181824px;font-family:'Droid Sans';-inkscape-font-specification:'Droid Sans Bold';fill:#4242f9;fill-opacity:1">CCN</tspan></text>
    <text
       xml:space="preserve"
       style="font-style:normal;font-variant:normal;font-weight:bold;font-stretch:normal;font-size:41.83421707px;line-height:125%;font-family:sans-serif;-inkscape-font-specification:'sans-serif Bold';letter-spacing:0px;word-spacing:0px;fill:#4242f9;fill-opacity:1;stroke:none;stroke-width:1px;stroke-linecap:butt;stroke-linejoin:miter;stroke-opacity:1"
       x="459.0401"
       y="320.69107"
       id="text3347-6"
       sodipodi:linespacing="125%"
       transform="scale(1.003361,0.99665025)"><tspan
         sodipodi:role="line"
         id="tspan3349-9"
         x="459.0401"
         y="320.69107"
         style="font-style:normal;font-variant:normal;font-weight:bold;font-stretch:normal;font-size:203.94181824px;font-family:'Droid Sans';-inkscape-font-specification:'Droid Sans Bold';fill:#4242f9;fill-opacity:1">lite</tspan></text>
  </g>
  <g
     inkscape:groupmode="layer"
     id="layer3"
     inkscape:label="Feather"
     style="display:inline"
     transform="translate(-373.94362,-3.8199775)">
    <path
       transform="translate(109.46429,-145.21934)"
       style="display:inline;fill:#000000;stroke-width:0.1;stroke-miterlimit:4;stroke-dasharray:none"
       d="m 268.72933,367.6794 c -1.2375,-0.61289 -2.25,-1.79589 -2.25,-2.6289 0,-2.8356 31.29886,-25.95475 35.19098,-25.9941 2.32779,-0.0235 3.22579,-1.80998 1.78344,-3.54791 -2.16031,-2.60301 1.28266,-10.54944 8.00219,-18.46918 3.72593,-4.39144 4.10326,-1.83439 0.45091,3.05572 -4.45715,5.96765 -4.75122,7.62698 -0.52179,2.94428 5.58495,-6.1835 10.00402,-16 7.20268,-16 -0.60963,0 -1.10841,0.64844 -1.10841,1.44098 0,0.79254 -0.49848,1.74907 -1.10774,2.12561 -0.77365,0.47814 -0.94965,-0.63506 -0.58355,-3.69098 0.62431,-5.21123 -0.6908,-12.56574 -3.43298,-19.19835 -1.09665,-2.6525 -1.81335,-5.3525 -1.59268,-6 0.67998,-1.99514 4.66013,6.9231 6.7303,15.08044 1.56257,6.15719 1.88959,6.821 1.59731,3.2423 -0.20214,-2.475 -0.69971,-5.5125 -1.10572,-6.75 -0.4564,-1.39107 -0.32988,-2.25 0.33142,-2.25 1.78875,0 3.16487,7.12383 2.5068,12.97696 -0.71313,6.34291 0.51206,6.20969 1.72273,-0.18732 1.21482,-6.41888 -2.24711,-19.90628 -6.64856,-25.90226 -3.30285,-4.49938 -4.22768,-6.88741 -2.66733,-6.88735 1.0716,4e-5 5.5967,5.90636 7.53665,9.83709 0.90584,1.83542 2.17638,6.11042 2.82342,9.5 0.64703,3.38959 1.6079,7.00663 2.13526,8.03788 0.62685,1.2258 0.5925,2.61076 -0.0992,4 -0.58192,1.16875 -1.46685,4.825 -1.9665,8.125 -0.49965,3.3 -1.27094,6.86132 -1.71398,7.91404 -0.59872,1.42267 -0.47897,1.71223 0.46645,1.12793 1.81367,-1.12091 4.06791,-6.94496 4.06791,-10.50985 0,-1.66767 0.45,-3.03212 1,-3.03212 0.55,0 1.00614,1.2375 1.01365,2.75 0.008,1.5125 0.285,3.7625 0.61664,5 0.44329,1.65413 0.17484,2.25 -1.01366,2.25 -0.88915,0 -1.61663,0.44486 -1.61663,0.98857 0,1.60958 -3.32655,5.12588 -5.75,6.07798 -1.2375,0.48617 -2.23569,1.68259 -2.2182,2.6587 0.0298,1.66527 0.11827,1.66062 1.43347,-0.0754 0.77091,-1.01757 1.87969,-1.5547 2.46394,-1.19361 0.58426,0.36109 1.58355,-0.48754 2.22066,-1.88584 1.39806,-3.0684 5.81203,-6.30667 5.92041,-4.34346 0.0387,0.70018 0.45122,0.37305 0.9168,-0.72695 1.57275,-3.71588 0.48535,-20.62902 -1.60735,-25 -2.69873,-5.63681 -9.02405,-16.55205 -11.23644,-19.39005 -1.81902,-2.33341 -1.81823,-2.43501 0.0332,-4.28648 2.06523,-2.06522 3.32077,-1.68127 6.14605,1.87949 2.507,3.15963 4.30651,2.9061 2.19934,-0.30986 -1.02431,-1.56329 -1.34434,-2.97068 -0.79943,-3.51559 0.54492,-0.54492 2.73303,1.99992 5.46583,6.3569 5.97341,9.5236 6.97751,11.54507 6.02657,12.13278 -0.43478,0.26871 -1.40152,-0.94148 -2.1483,-2.68931 -1.72975,-4.04843 -3.995,-6.67787 -5.75296,-6.67787 -2.44505,0 -2.56427,2.8508 -0.31363,7.5 1.20904,2.49754 1.95899,5.16448 1.66656,5.92653 -0.29242,0.76206 0.33797,2.17258 1.40088,3.1345 1.85151,1.67559 1.93256,1.66129 1.93256,-0.34094 0,-1.14944 -0.43886,-3.24419 -0.97525,-4.65499 -0.53639,-1.41081 -0.59788,-2.5651 -0.13664,-2.5651 1.08845,0 3.06429,9.96218 3.37167,17 0.13324,3.0507 0.68555,5.39002 1.24022,5.25303 1.19348,-0.29475 1.26342,-7.07681 0.1341,-13.00303 -0.44544,-2.3375 -0.42297,-4.25 0.05,-4.25 0.74059,0 3.43069,11.06784 3.59317,14.78333 0.0309,0.70584 0.42849,0.91096 0.88362,0.45584 1.10781,-1.10782 1.35372,-5.22902 0.47169,-7.90501 -0.39264,-1.19122 -0.27446,-2.43743 0.26262,-2.76936 1.41192,-0.87261 2.46213,7.63545 1.69594,13.73929 -0.84436,6.72651 -3.6543,14.69591 -5.18165,14.69591 -0.6575,0 -1.45448,0.675 -1.77107,1.5 -0.31658,0.825 -0.22738,1.5 0.19823,1.5 2.02683,0 14.67388,-4.79537 14.74977,-5.59266 0.0475,-0.49904 0.35433,-1.58234 0.68184,-2.40734 6.99649,-17.62409 6.07484,-29.03082 -3.50218,-43.34447 -2.15074,-3.21445 -3.62217,-6.13273 -3.26984,-6.48505 1.56886,-1.56886 9.77022,13.36237 12.01618,21.8764 1.77241,6.71888 1.17975,19.53086 -1.01568,21.95678 -0.93606,1.03434 -1.50179,2.46915 -1.25717,3.18848 0.85409,2.5115 4.76048,-7.05023 4.76048,-11.6523 0,-2.49691 0.45,-4.53984 1,-4.53984 0.55,0 1,1.82656 1,4.05902 0,2.45136 0.39607,3.81423 1,3.44098 1.5133,-0.93527 1.19701,-13.69018 -0.45564,-18.37427 -0.8006,-2.26915 -1.07049,-4.12573 -0.59974,-4.12573 0.91077,0 2.59792,6.56321 3.60346,14.01796 0.46715,3.4633 0.0248,6.07115 -1.89499,11.17154 -2.11535,5.61998 -2.27486,6.74166 -1.02681,7.22059 0.85015,0.32623 1.21194,0.13716 0.852,-0.44524 -0.5744,-0.9294 1.9591,-9.12613 3.54363,-11.46485 0.66408,-0.98015 -0.18357,-10.28832 -1.4367,-15.77663 -0.34869,-1.52714 -1.74801,-5.29564 -3.1096,-8.37443 -2.7451,-6.20716 -2.96686,-7.34894 -1.42734,-7.34894 1.21913,0 4.0007,6.11174 3.2986,7.24776 -0.26091,0.42217 0.21235,1.45431 1.05168,2.29365 1.86474,1.86474 3.68316,8.08209 2.93445,10.03319 -0.30084,0.78397 -0.0488,1.4254 0.56001,1.4254 0.60885,0 1.11388,1.4625 1.1223,3.25 0.0113,2.39532 0.25997,2.86315 0.94563,1.77896 1.49454,-2.36322 1.92105,-0.94601 2.1828,7.25305 0.1478,4.62945 0.66856,7.69877 1.30133,7.66996 0.58021,-0.0264 2.61158,-0.81392 4.51414,-1.75 4.29541,-2.11339 5.40056,-6.22943 4.75295,-17.70197 -0.35838,-6.34879 -0.25079,-7.27759 0.52125,-4.5 0.53506,1.925 0.77917,7.26829 0.54247,11.87398 -0.37887,7.37198 -0.26153,8.14975 0.98065,6.5 1.04403,-1.38659 1.30912,-4.1497 1.01926,-10.62398 -0.21546,-4.8125 -0.064,-8.75 0.33664,-8.75 1.04254,0 2.23715,12.47102 1.4826,15.47741 -0.36662,1.4607 -0.20416,2.52259 0.38592,2.52259 1.86532,0 1.54664,-13.53024 -0.50497,-21.4394 -0.7216,-2.78185 -1.18812,-5.18179 -1.03671,-5.3332 1.05681,-1.05681 4.65091,12.74914 4.7442,18.22384 0.11796,6.92184 1.70948,9.18424 1.96884,2.79876 0.0838,-2.0625 0.21165,-4.425 0.28417,-5.25 0.28017,-3.1875 -1.66369,-11.43117 -3.50601,-14.86855 -2.45566,-4.58173 -2.5225,-6.61451 -0.0861,-2.61939 1.98071,3.24794 4.78366,11.21965 5.57678,15.86063 0.27002,1.57999 0.78437,3.15499 1.14302,3.5 0.79272,0.7626 -0.0296,-7.48456 -1.0592,-10.62269 -0.44673,-1.36159 -0.32868,-2.25 0.29897,-2.25 1.35426,0 2.49299,5.22148 2.50799,11.5 0.007,2.75 0.20738,3.875 0.44623,2.5 0.23885,-1.375 1.06599,-2.85986 1.83808,-3.29969 1.86692,-1.06354 1.79837,-3.70031 -0.0962,-3.70031 -0.825,0 -1.5,-0.49814 -1.5,-1.10699 0,-0.60884 0.675,-0.84797 1.5,-0.53138 1.76729,0.67817 2.10092,-3.37029 0.52101,-6.32237 -0.68712,-1.2839 -0.60194,-2.14217 0.28572,-2.87886 0.93263,-0.77402 1.29002,-0.60467 1.36115,0.645 0.35243,6.19234 1.25404,10.66857 2.21328,10.98832 0.7273,0.24243 1.11884,-1.40599 1.11884,-4.71039 0,-2.79583 0.45,-5.08333 1,-5.08333 0.55,0 1,-0.47656 1,-1.05902 0,-0.58246 -0.45,-0.7809 -1,-0.44098 -0.55,0.33992 -1.00655,-0.19602 -1.01455,-1.19098 -0.008,-0.99496 -0.70058,-3.77895 -1.53905,-6.18664 -0.83847,-2.40769 -1.26034,-4.64177 -0.93748,-4.96463 0.78484,-0.78485 3.76016,1.14949 4.31129,2.80289 0.26962,0.80886 -0.0147,1.03716 -0.73639,0.59116 -0.81003,-0.50062 -1.06946,0.0663 -0.83421,1.82299 0.51005,3.80872 1.47673,4.14768 2.21697,0.77738 0.45201,-2.05799 -0.008,-4.44993 -1.47417,-7.66884 -1.17209,-2.5729 -1.89371,-4.91537 -1.60359,-5.20548 0.29012,-0.29012 1.27018,1.32868 2.17791,3.59733 0.90774,2.26865 2.08189,4.12482 2.60924,4.12482 1.06656,0 0.29801,-3.06981 -1.80266,-7.20034 -0.75532,-1.48519 -1.37331,-3.29119 -1.37331,-4.01335 0,-1.92403 -7.28668,-12.42628 -7.71989,-11.12664 -0.20231,0.60694 1.0019,3.42661 2.67602,6.26593 3.21182,5.44726 3.68192,7.0744 2.04387,7.0744 -0.55,0 -1,-0.48002 -1,-1.06672 0,-0.5867 -1.19288,-2.63067 -2.65084,-4.54216 -3.29452,-4.31933 -4.40097,-12.2733 -1.9861,-14.27747 1.3389,-1.11119 2.14747,-0.83706 5.35693,1.81617 3.1048,2.56671 3.84182,2.83104 4.12601,1.47979 0.27332,-1.29953 0.95905,-0.97391 3.26437,1.55009 3.96297,4.33889 6.00303,8.53265 6.32078,12.99359 0.14624,2.05318 1.00044,5.20548 1.89822,7.00512 1.56203,3.13117 3.3256,12.25022 2.84602,14.71618 -0.12563,0.64603 0.25422,1.47289 0.84414,1.83748 1.38871,0.85827 0.31526,-7.71922 -2.03694,-16.27636 -1.34607,-4.89686 -1.42296,-6.01615 -0.35227,-5.12755 0.75332,0.6252 1.41026,1.86913 1.45987,2.76428 0.0496,0.89516 0.48748,0.26149 0.97306,-1.40815 1.22025,-4.19574 4.63717,-4.19574 5.48644,0 0.33795,1.66964 1.11782,4.49792 1.73304,6.28506 0.847,2.46044 0.82707,3.54085 -0.0821,4.45 -0.66036,0.66036 -1.19064,1.89815 -1.17841,2.75065 0.0156,1.08873 0.60838,0.80601 1.99183,-0.95 2.23677,-2.83911 2.03668,-5.04169 -1.31722,-14.5 -3.07293,-8.66594 -8.265,-18.3033 -12.72906,-23.62728 -4.68595,-5.58862 -4.04165,-7.41872 0.74637,-2.12004 3.85305,4.26398 13.53017,23.39326 15.43272,30.50667 0.69736,2.60736 1.6246,4.74065 2.06052,4.74065 0.43593,0 0.7926,-0.39642 0.7926,-0.88094 0,-1.12095 -4.18535,-12.15214 -6.9797,-18.39617 -1.21277,-2.70995 -1.86778,-5.62809 -1.51369,-6.7437 0.46852,-1.47619 0.24942,-1.8228 -0.87858,-1.38995 -1.03124,0.39573 -2.13617,-0.66495 -3.52154,-3.3805 -2.09455,-4.10565 -6.03389,-7.78933 -13.35649,-12.48964 -2.78649,-1.78863 -3.56593,-4.09679 -1.76029,-5.21274 0.54434,-0.33642 3.73403,2.09879 7.08821,5.41158 3.35417,3.31279 6.59039,5.92399 7.19159,5.80266 0.60119,-0.12133 2.5888,2.23834 4.41689,5.24371 2.58806,4.25474 3.19376,6.15757 2.73628,8.59615 -0.36952,1.96973 -0.0931,3.65274 0.74489,4.53568 0.73284,0.77212 1.95708,3.18268 2.72054,5.35679 0.76346,2.17412 2.24494,5.32412 3.29219,7 l 1.90407,3.04707 -0.69565,-3 c -0.38261,-1.65 -1.52659,-4.56834 -2.54219,-6.48519 -1.01559,-1.91686 -1.8286,-4.16686 -1.80668,-5 0.0219,-0.83315 0.83681,0.0602 1.81089,1.98519 4.07185,8.04692 4.20015,8.20266 5.719,6.94212 2.05508,-1.70556 1.91798,1.38388 -0.2052,4.62427 -0.8995,1.37282 -1.38856,2.74292 -1.08681,3.04467 0.76163,0.76163 9.72227,-8.20907 9.72227,-9.73319 0,-0.68095 -1.35,0.27401 -3,2.12213 -3.61435,4.04833 -4.04481,3.0304 -0.5,-1.18237 3.90967,-4.64638 3.2184,-6.76853 -0.79775,-2.44904 -1.71113,1.84037 -2.70402,2.18207 -4.45225,1.53222 -1.2375,-0.46 -2.25,-1.47993 -2.25,-2.26651 0,-0.78659 -1.11958,-3.38859 -2.48795,-5.78223 -2.96072,-5.17905 -3.08308,-6.0033 -0.76205,-5.13345 1.44964,0.54328 1.54238,0.39992 0.54033,-0.83526 -0.66532,-0.8201 -1.68004,-2.59186 -2.25493,-3.93723 -0.92628,-2.1677 -0.97561,-2.06196 -0.4334,0.92897 0.42407,2.33918 0.27211,3.16513 -0.49507,2.69099 -0.60879,-0.37627 -1.10691,-1.50247 -1.10691,-2.50266 0,-1.0002 -0.675,-2.37874 -1.5,-3.06343 -0.825,-0.68469 -1.5,-1.63637 -1.5,-2.11484 0,-1.03671 -3.35652,-5.07286 -7.4638,-8.97508 -1.63009,-1.5487 -2.60556,-3.17405 -2.16772,-3.6119 0.43785,-0.43784 2.52203,1.22798 4.63152,3.70182 2.10949,2.47384 4.05756,4.27337 4.32904,3.99895 0.27148,-0.27442 -1.48711,-2.71584 -3.90797,-5.42536 -4.66118,-5.21698 -5.20488,-7.57753 -0.80481,-3.4942 3.40937,3.16394 9.23716,11.93849 13.21129,19.89141 3.09288,6.1894 4.12232,9.0464 2.17245,6.0292 -1.10206,-1.70531 -1.34061,-0.0512 -0.36084,2.50206 0.49054,1.27833 0.82336,1.3676 1.4313,0.38394 0.5672,-0.91776 1.14116,-0.51565 2.02135,1.41615 0.67607,1.48382 1.63355,2.69785 2.12772,2.69785 0.49418,0 0.70034,-0.3375 0.45814,-0.75 -0.24221,-0.4125 -1.4123,-3 -2.60022,-5.75 -6.18799,-14.32508 -13.24705,-24.1897 -21.7985,-30.46212 -6.78152,-4.97419 -8.6357,-7.03788 -6.32336,-7.03788 3.72354,0 15.77324,12.17015 21.33465,21.54791 1.53463,2.58772 3.03031,4.46487 3.32373,4.17145 0.84419,-0.84419 -3.50434,-8.2902 -7.92562,-13.57108 -1.54641,-1.84707 -2.52429,-3.64568 -2.17306,-3.9969 1.02975,-1.02976 6.02295,5.6848 11.17486,15.02729 2.63222,4.77326 4.92452,8.53999 5.094,8.37051 0.16949,-0.16948 -1.34526,-3.84988 -3.3661,-8.17867 -5.76823,-12.35593 -12.24216,-19.81385 -23.03406,-26.53507 -5.25539,-3.27308 -6.76895,-3.71291 -14.16771,-4.11706 -4.55604,-0.24886 -8.56854,-0.73731 -8.91666,-1.08543 -1.3265,-1.3265 0.89497,-1.92265 7.925,-2.12674 10.15418,-0.29478 11.2009,-0.41402 10.42713,-1.18779 -0.37487,-0.37487 -3.23533,-0.56329 -6.35658,-0.4187 -5.3222,0.24653 -5.58549,0.15264 -4.23509,-1.51038 0.79196,-0.97529 0.90508,-1.45241 0.25138,-1.06027 -0.67212,0.4032 -1.62052,-0.0565 -2.18275,-1.05804 -0.94189,-1.67783 -1.02958,-1.67924 -1.66625,-0.0268 -0.36961,0.95934 -1.10683,1.47554 -1.63824,1.14711 -1.48078,-0.91517 -9.94186,0.60928 -9.28456,1.67281 0.31811,0.51471 2.23932,0.94951 4.26936,0.96623 3.00388,0.0248 3.36363,0.22104 1.93248,1.05445 -2.4682,1.43733 -11.3116,0.76564 -10.9915,-0.83485 0.1375,-0.6875 -0.46764,-1.25 -1.34476,-1.25 -2.3619,0 -15.59111,-4.14746 -15.02737,-4.7112 0.26627,-0.26627 2.78732,0.01 5.60235,0.61354 5.85009,1.25462 16.32072,1.46339 17.43645,0.34766 0.79227,-0.79228 1.85828,-0.9243 9.08333,-1.125 2.475,-0.0688 4.5,-0.50151 4.5,-0.9617 0,-0.46018 -5.7375,-0.64071 -12.75,-0.40118 -17.66368,0.60335 -39.25,-2.55203 -39.25,-5.73737 0,-1.52192 3.25695,-1.24214 6.94231,0.59636 4.50185,2.24581 16.18541,3.43771 31.55769,3.21934 18.00603,-0.25577 24.12021,-0.80969 22.38782,-2.02824 -0.94442,-0.66429 0.24586,-0.81046 3.72548,-0.4575 2.89094,0.29325 5.55829,0.0737 6.13714,-0.50515 0.69843,-0.69843 1.23736,-0.67832 1.69571,0.0633 0.36954,0.59793 1.59347,1.08714 2.71986,1.08714 1.40957,0 1.86854,0.46758 1.47236,1.5 -0.387,1.0085 0.046,1.5 1.32159,1.5 1.04345,0 2.49183,0.56514 3.21861,1.25587 0.72679,0.69073 2.67143,1.71407 4.32143,2.27408 1.65,0.56002 3,1.66919 3,2.46483 0,0.79564 1.6875,3.22055 3.75,5.38868 5.48641,5.76742 4.7488,7.46854 -0.99606,2.29716 -1.23533,-1.11201 -2.49091,-1.77699 -2.79017,-1.47772 -0.29926,0.29926 1.27396,2.04782 3.49606,3.88568 2.22209,1.83786 4.04017,4.11823 4.04017,5.06748 0,0.94925 0.45,2.00402 1,2.34394 0.55,0.33992 0.99832,1.60398 0.99626,2.80902 -0.003,1.96488 -0.19496,1.8814 -1.85682,-0.80902 -2.25858,-3.65647 -5.9331,-7.03968 -6.75411,-6.21866 -0.33132,0.33132 1.19255,2.76606 3.38638,5.41053 4.85668,5.85429 6.39304,8.71522 5.67919,10.57547 -0.29805,0.77673 0.21757,2.04255 1.14584,2.81295 1.56644,1.30002 1.6364,0.89819 0.97328,-5.58979 -0.39296,-3.84477 -1.35697,-9.20968 -2.14225,-11.922 -1.67204,-5.77522 -1.76298,-6.89371 -0.49687,-6.11121 1.39085,0.8596 2.07241,-0.84244 1.00312,-2.50504 -0.75709,-1.17715 -1.09426,-1.20416 -1.77991,-0.14258 -0.63836,0.98835 -1.26923,0.66358 -2.57138,-1.32376 -5.61762,-8.57356 -14.93837,-15.07309 -26.50965,-18.48566 -6.71435,-1.98017 -9.20891,-2.15722 -26,-1.84528 -11.99746,0.22287 -21.4054,-0.11107 -26.57308,-0.94324 -14.0527,-2.26295 -15.14912,-2.29179 -8,-0.21041 3.85,1.12088 11.9196,2.83191 17.93245,3.80228 9.66915,1.56045 11.80693,1.60851 18.5,0.41592 8.44241,-1.50429 21.54918,-1.13789 23.33953,0.65246 0.88736,0.88736 0.45701,1.04579 -1.80323,0.66385 -7.89191,-1.3336 -13.57985,-1.15014 -20.53591,0.66238 -6.39714,1.66689 -13.97397,2.43153 -17.43284,1.7593 -0.55,-0.1069 -1.45,-0.0872 -2,0.0439 -2.78619,0.66374 -9.69776,-0.22837 -15.5,-2.00067 -3.575,-1.09199 -7.85,-1.99888 -9.5,-2.01531 -1.65,-0.0164 -4.125,-0.90987 -5.5,-1.98541 -1.375,-1.07554 -3.20149,-1.96553 -4.05887,-1.97776 -2.04418,-0.0292 -5.62607,-2.67064 -4.7752,-3.5215 0.36453,-0.36453 1.62627,-0.14714 2.80386,0.48309 1.1776,0.63023 2.65391,0.97494 3.28069,0.76601 0.62679,-0.20893 -1.43333,-1.85196 -4.57804,-3.65118 -3.14471,-1.79922 -6.83694,-4.91848 -8.20495,-6.93169 -2.60544,-3.83425 -1.70315,-5.5952 1.41912,-2.76959 0.97398,0.88144 2.29794,1.60262 2.94213,1.60262 0.64419,0 1.17126,0.45 1.17126,1 0,0.55 0.45,1 1,1 2.30814,0 0.61658,-2.71675 -5.5,-8.83333 -6.73403,-6.73404 -7.92823,-9.16667 -4.5,-9.16667 1.1,0 2,0.3377 2,0.75044 0,0.41275 1.90834,2.77525 4.24076,5.25 2.33241,2.47476 5.14491,6.29956 6.25,8.49956 1.70795,3.4002 2.48357,4 5.1725,4 1.73979,0 3.50229,0.3375 3.91666,0.75 0.41438,0.4125 1.46591,0.74311 2.33675,0.73469 1.38743,-0.0134 1.39774,-0.13525 0.0833,-0.98469 -1.08997,-0.70439 -1.14217,-0.97356 -0.19098,-0.98469 0.71996,-0.008 1.0309,-0.46531 0.69098,-1.01531 -0.33992,-0.55 -1.40015,-1 -2.35607,-1 -2.68884,0 -13.14393,-11.8554 -13.14393,-14.90437 0,-2.20418 1.93852,-0.99844 4.68515,2.91411 2.45282,3.49403 6.5902,6.04824 7.81429,4.82415 0.22346,-0.22346 -0.92249,-1.8281 -2.54657,-3.56586 -3.29848,-3.52937 -3.80925,-5.5796 -1.26812,-5.09022 0.92662,0.17845 2.84066,2.30087 4.25344,4.7165 1.41277,2.41563 3.24213,4.72139 4.06524,5.12392 0.82311,0.40252 3.40907,1.71689 5.74657,2.9208 4.70222,2.42185 5.90775,1.51103 1.39628,-1.05494 -2.08012,-1.1831 -3.00761,-2.64215 -3.46285,-5.44749 -0.34198,-2.10737 -0.47975,-3.97362 -0.30615,-4.14722 0.67629,-0.67628 7.25861,2.6508 8.9568,4.52728 1.11995,1.23754 2.99003,1.94982 4.9797,1.89668 2.19109,-0.0585 4.84465,1.10886 8.49619,3.73768 4.47688,3.223 5.65356,3.65748 7.5,2.76934 1.20451,-0.57937 4.987,-1.56056 8.40551,-2.18041 5.07288,-0.91983 6.72736,-0.8654 9,0.29608 1.53149,0.7827 4.24186,1.73691 6.02305,2.12047 1.7812,0.38355 3.49525,1.11275 3.80902,1.62044 0.31377,0.50768 1.31905,0.92306 2.23397,0.92306 2.6258,0 -1.44809,-2.52021 -6.5399,-4.04576 -4.25938,-1.27614 -5.86653,-3.95424 -2.37297,-3.95424 1.02775,0 5.86525,1.41309 10.75,3.14019 10.388,3.6729 18.63772,9.44576 22.70448,15.88778 1.55271,2.45962 5.86968,9.19703 9.59324,14.97203 3.72357,5.775 7.0858,11.85 7.47163,13.5 0.38584,1.65 1.10252,4.8 1.59264,7 1.28118,5.7508 0.22664,20.62088 -2.16296,30.5 -1.1308,4.675 -4.03444,12.55 -6.45252,17.5 -5.3112,10.87243 -16.62381,27.41287 -22.5459,32.96492 -11.48123,10.76383 -16.2402,14.59462 -21.07002,16.96058 -2.88708,1.41429 -7.04924,3.91463 -9.24924,5.55632 -4.18431,3.12243 -8.19397,5.17141 -28,14.3083 -9.08481,4.19099 -13.57906,5.6868 -18.5,6.15728 -3.575,0.3418 -9.425,1.3 -13,2.12934 -18.08688,4.19581 -20.6187,4.55485 -27.82362,3.9457 -7.24532,-0.61256 -7.38415,-0.57857 -12.98473,3.17919 -3.11361,2.0891 -7.08949,4.48109 -8.8353,5.31552 -1.74581,0.83444 -5.42565,3.53444 -8.17741,6 -6.26551,5.61385 -10.52997,8.98861 -11.17894,8.84665 -0.275,-0.0601 -1.5125,-0.61082 -2.75,-1.22371 z m 30.31184,-23.41159 c -0.3352,-0.3352 -1.38625,0.20383 -2.33565,1.19784 -1.65022,1.72775 -1.6234,1.75457 0.60946,0.60945 1.2846,-0.6588 2.06139,-1.47209 1.72619,-1.80729 z m 15.43816,-2.2285 c 0,-0.55 -0.70156,-1 -1.55902,-1 -0.85746,0 -1.2809,0.45 -0.94098,1 0.33992,0.55 1.04148,1 1.55902,1 0.51754,0 0.94098,-0.45 0.94098,-1 z m -5.36431,-1.49384 c 1.57537,-0.82161 2.16282,-1.49661 1.30544,-1.5 -0.85738,-0.003 -2.43238,0.65453 -3.5,1.46204 -2.52544,1.91015 -1.43148,1.92907 2.19456,0.038 z m 19.36431,0.49384 c 1.1417,-0.73783 0.73924,-0.97303 -1.6849,-0.98469 -1.7517,-0.008 -4.26426,-0.42568 -5.58347,-0.92725 -1.35523,-0.51525 -3.00428,-0.53759 -3.79103,-0.0514 -1.08038,0.66771 -0.83755,1.08201 1.08347,1.84855 3.22021,1.285 8.07868,1.34088 9.97593,0.11479 z m 1.64436,-3.9597 c -3.69091,-1.721 -7.64436,-1.71588 -7.64436,0.01 0,0.87451 3.62195,1.607 8.5,1.71901 2.99195,0.0687 2.98965,0.0641 -0.85564,-1.72892 z m -15.87019,-3.04404 c 1.80079,-1.09794 3.92257,-1.99626 4.71505,-1.99626 1.17797,0 10.69952,-2.87255 11.13655,-3.35978 0.0692,-0.0771 0.46257,-1.26522 0.87421,-2.64022 l 0.74844,-2.5 -2.53782,2.34316 c -1.47421,1.36113 -3.93611,2.40889 -5.87421,2.5 -1.83502,0.0863 -3.78639,0.65646 -4.33639,1.2671 -1.58626,1.76117 -4.80576,2.63344 -4.24857,1.15108 0.26076,-0.69374 0.82673,-2.38634 1.25771,-3.76134 0.74649,-2.38161 0.66633,-2.35793 -1.69258,0.5 -1.36189,1.65 -2.77458,3.81602 -3.1393,4.81338 -0.36472,0.99736 -1.11631,1.5333 -1.6702,1.19099 -0.55388,-0.34232 -1.00706,0.0792 -1.00706,0.93661 0,2.09824 1.83517,1.95689 5.77417,-0.44472 z m 19.72583,0.004 c 0.33992,-0.55 -0.0835,-1 -0.94098,-1 -0.85746,0 -1.55902,0.45 -1.55902,1 0,0.55 0.42344,1 0.94098,1 0.51754,0 1.2191,-0.45 1.55902,-1 z m 29.55283,-0.0538 c 0.95789,-0.60603 -1.08854,-0.95445 -6.05283,-1.03057 -12.63578,-0.19373 -13.80939,-1.69254 -1.5,-1.91563 16.09905,-0.29177 18.32413,-1.53272 4,-2.23084 -9.52546,-0.46424 -13.18543,-0.24298 -17.74861,1.073 -3.16174,0.91181 -5.74924,1.92657 -5.75,2.25503 -0.005,2.3341 23.72128,3.95585 27.05144,1.849 z m -32.61493,-1.84572 c 0.30576,-0.49474 2.83161,-1.44545 5.61299,-2.11269 2.78139,-0.66724 4.84816,-1.42207 4.59283,-1.6774 -0.73865,-0.73865 -12.64372,2.85949 -12.64372,3.82139 0,1.14033 1.7275,1.11815 2.4379,-0.0313 z m -14.50658,-10.60048 c 0.008,-0.55 -1.54826,0.68089 -3.45838,2.73531 -1.91012,2.05443 -3.47294,4.2669 -3.47294,4.91661 0,0.64972 1.55627,-0.58117 3.45837,-2.73531 1.90211,-2.15414 3.46493,-4.36661 3.47295,-4.91661 z m 29.56868,5.5 c 0.33992,-0.55 0.14148,-1 -0.44098,-1 -0.58246,0 -1.05902,0.45 -1.05902,1 0,0.55 0.19844,1 0.44098,1 0.24254,0 0.7191,-0.45 1.05902,-1 z m 20.5,-1.17764 c -4.675,-0.43102 -9.175,-0.47543 -10,-0.0987 -2.01166,0.91863 8.28854,1.89666 14,1.32934 3.85801,-0.38321 3.28735,-0.55878 -4,-1.23065 z m -30.1074,-1.89097 c 1.41901,-1.91931 2.00764,-3.69834 1.57164,-4.75 -0.59032,-1.42385 -0.77497,-1.45164 -1.20556,-0.18139 -0.27966,0.825 -1.38898,2.9625 -2.46514,4.75 -2.48102,4.12096 -0.91372,4.2564 2.09906,0.18139 z m 22.32401,-0.63473 c 6.32657,-2.5314 3.7758,-2.38034 -4.25007,0.25169 -4.8765,1.59922 -6.10497,2.24857 -3.54142,1.87196 2.15881,-0.31715 5.66498,-1.2728 7.79149,-2.12365 z m 29.78339,-1.45186 5.5,-2.61728 -8,0.34312 c -7.19457,0.30857 -7.49661,0.25283 -3,-0.55366 14.9208,-2.67612 17.4165,-4.0793 6.18836,-3.47933 -5.69335,0.30422 -8.59451,0.11952 -8.19807,-0.52195 0.3426,-0.55433 -0.0718,-0.77703 -0.93835,-0.50425 -0.85357,0.2687 -2.24635,0.70687 -3.09506,0.97371 -1.13521,0.35692 -1.29414,0.95169 -0.60122,2.25 0.79547,1.49047 0.48916,1.7815 -1.9703,1.872 -1.60171,0.0589 -3.7291,0.84644 -4.72752,1.75 -0.99843,0.90356 -2.79239,1.64284 -3.98658,1.64284 -1.19419,0 -2.17126,0.40512 -2.17126,0.90026 0,0.49514 4.3875,0.82411 9.75,0.73104 8.23191,-0.14286 10.60636,-0.57672 15.25,-2.7865 z m -12,1.09618 c 0,-0.58246 -0.5625,-0.74144 -1.25,-0.35329 -0.95806,0.54089 -0.97841,0.41154 -0.0871,-0.55385 0.63957,-0.69277 1.65207,-0.95723 2.25,-0.58769 1.3638,0.84288 1.42217,2.55385 0.0871,2.55385 -0.55,0 -1,-0.47656 -1,-1.05902 z m -48,0.61804 c 0,-0.24254 -0.45,-0.7191 -1,-1.05902 -0.55,-0.33992 -1,-0.14148 -1,0.44098 0,0.58246 0.45,1.05902 1,1.05902 0.55,0 1,-0.19844 1,-0.44098 z m 6.34883,-4.4728 c 1.20102,-3.00165 1.4242,-5.92286 0.95763,-12.53428 -0.3346,-4.74127 -0.87793,-8.78852 -1.20741,-8.9939 -0.32948,-0.20537 -0.45651,3.82431 -0.28229,8.95485 0.23783,7.00414 -0.0736,10.08311 -1.25,12.35802 -1.80423,3.48899 -1.90892,4.12909 -0.67534,4.12909 0.49028,0 1.59611,-1.7612 2.45741,-3.91378 z m -14.34883,-1.27735 c 0,-2.99887 -0.0854,-3.07435 -1.41732,-1.25283 -1.00029,1.36798 -1.11138,2.30692 -0.37755,3.19113 1.53927,1.85471 1.79487,1.57869 1.79487,-1.9383 z m 40.53985,0.78565 c 1.79663,-1.31373 1.74285,-1.37122 -0.82364,-0.8806 -1.51017,0.28869 -2.99067,0.92115 -3.29,1.40548 -0.85895,1.3898 1.99278,1.02593 4.11364,-0.52488 z m 8.18932,0.80131 c -0.3323,-0.33229 -1.1948,-0.36781 -1.91667,-0.0789 -0.79773,0.31922 -0.56078,0.55618 0.60417,0.60416 1.05416,0.0434 1.64479,-0.19293 1.3125,-0.52522 z m 4.77083,-1.39583 c 0.33992,-0.55 -0.0835,-1 -0.94098,-1 -0.85746,0 -1.55902,0.45 -1.55902,1 0,0.55 0.42344,1 0.94098,1 0.51754,0 1.2191,-0.45 1.55902,-1 z m -32.5,-6.72568 c 0,-2.53421 -0.16513,-4.42015 -0.36694,-4.19099 -0.83019,0.94267 -1.31417,9.83762 -0.50818,9.33949 0.48132,-0.29747 0.87512,-2.6143 0.87512,-5.1485 z m 19.80687,2.19922 c -0.30789,-0.30789 -0.86705,0.24711 -1.24258,1.23333 -0.54268,1.4252 -0.42782,1.54006 0.5598,0.5598 0.68342,-0.67834 0.99067,-1.48524 0.68278,-1.79313 z m 7.19313,1.52646 c -0.825,-0.53316 -1.95,-0.96937 -2.5,-0.96937 -0.55,0 -0.325,0.43621 0.5,0.96937 0.825,0.53316 1.95,0.96937 2.5,0.96937 0.55,0 0.325,-0.43621 -0.5,-0.96937 z m 3.92971,-2.75 c -0.0623,-2.43684 -0.16815,-2.52225 -0.92971,-0.75 -0.50758,1.18121 -0.8882,1.42002 -0.92971,0.58333 -0.0387,-0.77916 -0.35088,-1.13607 -0.69383,-0.79312 -0.87344,0.87343 0.34386,3.70979 1.59216,3.70979 0.56726,0 0.99975,-1.2375 0.96109,-2.75 z m 26.57029,0.75 c 0.35052,-0.56716 -0.48962,-1 -1.94098,-1 -1.40746,0 -2.55902,-0.42659 -2.55902,-0.94798 0,-1.11108 -5.71018,0.67003 -6.56086,2.04645 -0.30644,0.49584 1.91783,0.90153 4.94283,0.90153 3.025,0 5.77811,-0.45 6.11803,-1 z m 7.95,-4.12185 c 0.56831,-0.52533 0.039,-0.87815 -1.31739,-0.87815 -1.81231,0 -2.13998,-0.40141 -1.63261,-2 0.8114,-2.55648 -0.67488,-2.56923 -2.9769,-0.0255 -0.98278,1.08596 -2.63405,2.24336 -3.6695,2.572 -1.03545,0.32864 -1.65822,0.96065 -1.38392,1.40447 0.62215,1.00666 9.68906,0.12081 10.98032,-1.07279 z m 4.05,-3.87815 c 2,-0.85943 2,-0.85943 0,-0.85943 -1.1,0 -2.9,0.38674 -4,0.85943 -2,0.85943 -2,0.85943 0,0.85943 1.1,0 2.9,-0.38674 4,-0.85943 z m -39.81689,-3.1875 c -0.31922,-0.79773 -0.55618,-0.56078 -0.60416,0.60417 -0.0434,1.05416 0.19292,1.64479 0.52522,1.3125 0.33229,-0.3323 0.36781,-1.1948 0.0789,-1.91667 z m 41.31689,0.23223 c 2.475,-0.43392 5.625,-1.29812 7,-1.92044 2.09228,-0.94696 1.60302,-1.03637 -3,-0.54827 -6.37144,0.67562 -12,2.42603 -12,3.73186 0,0.49835 0.7875,0.59553 1.75,0.21595 0.9625,-0.37958 3.775,-1.04517 6.25,-1.4791 z m 8.21936,-4.37496 c 1.49565,0.0221 2.48159,-0.34463 2.19098,-0.81484 -0.2906,-0.47021 -1.42837,-0.85493 -2.52837,-0.85493 -1.1,0 -1.72189,-0.45 -1.38197,-1 1.13952,-1.84378 -0.97132,-1.01455 -4,1.57137 l -3,2.56144 3,-0.75157 c 1.65,-0.41336 4.22371,-0.73353 5.71936,-0.71147 z m -12.20437,-1.69778 c 0.59695,-1.1154 1.56309,-1.73275 2.14699,-1.37188 1.35467,0.83723 2.80292,-1.42495 2.82271,-4.40913 0.0215,-3.24093 -1.96682,-1.68195 -2.06364,1.61804 -0.0434,1.48004 -0.29143,2.17195 -0.55113,1.53757 -0.29616,-0.72342 -1.38512,-0.24048 -2.92106,1.29546 -2.66052,2.66052 -2.96875,3.35795 -1.48404,3.35795 0.53065,0 1.45322,-0.9126 2.05017,-2.02801 z m 18.41991,-1.94724 c 1.41081,-0.53639 2.5651,-1.49149 2.5651,-2.12244 0,-0.80165 -0.37651,-0.83626 -1.25,-0.1149 -0.6875,0.56776 -2.825,1.48228 -4.75,2.03226 -2.42219,0.69202 -2.82717,1.02773 -1.3151,1.09014 1.2017,0.0496 3.3392,-0.34867 4.75,-0.88506 z m 2.93602,-4.94047 c 2.679,-1.19668 4.584,-2.46269 4.23333,-2.81336 -0.35067,-0.35067 -1.17008,-0.10509 -1.82092,0.54575 -0.65083,0.65083 -2.5204,1.18333 -4.15459,1.18333 -2.84829,0 -6.62874,2.37447 -6.62874,4.16346 0,0.46942 0.7875,0.45819 1.75,-0.025 0.9625,-0.48314 3.94191,-1.85754 6.62092,-3.05422 z m -100.37565,-2.7966 c -1.08961,-1.69929 -1.11783,-1.69711 -0.57078,0.0441 0.31653,1.00748 0.61104,2.35748 0.65446,3 0.057,0.84316 0.21579,0.83088 0.57077,-0.0441 0.27051,-0.66678 -0.024,-2.01678 -0.65445,-3 z m 86.53144,0.79648 c -0.33444,-1.05372 -0.13976,-2.20527 0.43261,-2.55902 0.57238,-0.35375 1.03379,-1.17912 1.02537,-1.83416 -0.009,-0.71561 -0.40223,-0.59227 -0.98469,0.30902 -0.80637,1.24777 -0.98377,1.16369 -1.05497,-0.5 -0.084,-1.96161 -0.10027,-1.96251 -0.84968,-0.0468 -0.64411,1.64653 -0.87054,1.42084 -1.44221,-1.4375 -0.38429,-1.92144 -0.2394,-3.82943 0.33436,-4.40319 0.68333,-0.68333 1.0125,-0.56024 1.0125,0.37863 0,0.94426 0.44611,0.78104 1.38876,-0.50811 0.76381,-1.04458 1.25139,-2.36809 1.0835,-2.94113 -0.16789,-0.57304 -0.55923,-3.74189 -0.86964,-7.04189 -0.56398,-5.99567 -0.56321,-5.99784 1.07519,-3.00807 0.90177,1.64556 1.72028,4.79556 1.81891,7 0.0986,2.20444 0.30546,5.13307 0.45962,6.50807 0.2688,2.39754 0.31157,2.37705 1.04366,-0.5 l 0.76337,-3 0.11832,3.25 c 0.0651,1.7875 0.59863,3.25 1.1857,3.25 0.58706,0 0.81966,-0.7875 0.51689,-1.75 -0.30278,-0.9625 -1.00352,-4.14974 -1.5572,-7.08274 -0.55368,-2.93301 -1.90761,-7.36942 -3.00873,-9.85869 -1.10112,-2.48927 -1.76075,-4.91636 -1.46583,-5.39354 0.29491,-0.47718 -0.16666,-2.11578 -1.02571,-3.64132 l -1.5619,-2.77371 0.26754,2.5 c 0.42028,3.92717 -1.73099,2.94623 -5.48267,-2.5 -1.89436,-2.75 -4.17401,-5.1428 -5.0659,-5.31733 -1.13335,-0.22178 -0.4266,1.47222 2.34725,5.6261 2.18288,3.26888 3.96887,6.4671 3.96887,7.10716 0,0.64006 0.94298,3.01215 2.09552,5.27131 1.41749,2.7785 1.902,5.07516 1.49743,7.09803 -0.43265,2.16322 -0.11328,3.3878 1.15448,4.42676 0.96391,0.78996 1.22635,1.17378 0.58319,0.85294 -2.16187,-1.07846 -4.33062,2.41462 -4.33062,6.97507 0,3.37252 0.32849,4.27114 1.40966,3.85625 0.84751,-0.32522 1.67195,0.28547 2.06739,1.53139 0.36175,1.13978 0.88273,2.07232 1.15773,2.07232 0.275,0 0.22637,-0.86213 -0.10807,-1.91584 z m 3.63118,-15.08416 c 0,-1.375 0.22698,-1.9375 0.50439,-1.25 0.27741,0.6875 0.27741,1.8125 0,2.5 -0.27741,0.6875 -0.50439,0.125 -0.50439,-1.25 z m -5.42668,-13.91984 c -0.43497,-1.66335 -0.30483,-2.05378 0.43724,-1.31171 0.5811,0.5811 0.85979,1.64682 0.61931,2.36826 -0.24965,0.74895 -0.70294,0.29565 -1.05655,-1.05655 z m 9.48243,24.73348 c -0.95152,-0.95152 -1.21364,-0.93904 -1.21364,0.0578 0,0.69928 -0.675,1.94643 -1.5,2.77143 -0.825,0.825 -1.5,2.02013 -1.5,2.65584 0,0.63572 1.22114,-0.0653 2.71364,-1.55779 2.12754,-2.12755 2.45151,-2.97576 1.5,-3.92727 z m 11.90947,0.8774 c 2.36856,-1.47919 2.46513,-3.1455 0.12689,-2.18958 -0.9625,0.39349 -3.19624,1.1333 -4.96387,1.64402 -1.76762,0.51072 -3.52018,1.4242 -3.89456,2.02996 -0.85885,1.38966 5.99527,0.22443 8.73154,-1.4844 z m 4.87689,-6.92579 c 0,-1.35548 -5.37977,0.36229 -7.5,2.39476 -1.97289,1.89123 -1.93561,1.89344 2.75,0.1629 2.6125,-0.96487 4.75,-2.11582 4.75,-2.55766 z m -13.31689,-0.95275 c -0.31922,-0.79773 -0.55618,-0.56078 -0.60416,0.60417 -0.0434,1.05416 0.19292,1.64479 0.52522,1.3125 0.33229,-0.3323 0.36781,-1.1948 0.0789,-1.91667 z m 4.30158,-4.12152 c 0.008,-0.44496 -0.4036,-0.55012 -0.91559,-0.23369 -0.512,0.31644 -1.21356,0.11799 -1.55902,-0.44098 -0.34546,-0.55897 -0.0169,-1.01631 0.7301,-1.01631 0.95828,0 1.24024,-1.01056 0.95756,-3.43195 -0.39286,-3.36514 -2.55737,-5.41321 -3.72473,-3.52438 -0.32508,0.52598 0.14351,0.95633 1.0413,0.95633 1.02571,0 1.49794,0.65036 1.2707,1.75 -0.1989,0.9625 -1.1319,1.6875 -2.07332,1.61111 -2.39112,-0.19402 -2.1332,2.13777 0.53831,4.86671 2.05247,2.0966 3.6893,1.86131 3.73469,-0.53684 z m 9.06497,1.78334 c 3.34307,-1.72877 3.87831,-3.47432 1.06535,-3.47432 -1.03674,0 -2.62212,1.125 -3.52305,2.5 -1.90648,2.90966 -1.5546,3.04916 2.4577,0.97432 z m 7.9412,-20.72432 c -0.005,-0.1375 -1.13525,-2.5 -2.51159,-5.25 -1.81578,-3.62803 -2.32189,-4.17682 -1.84443,-2 1.06364,4.84935 2.24421,7.5 3.34041,7.5 0.56361,0 1.02064,-0.1125 1.01561,-0.25 z m 2.97851,-3.25 c 0,-0.55 -0.43621,-0.325 -0.96937,0.5 -0.53316,0.825 -0.96937,1.95 -0.96937,2.5 0,0.55 0.43621,0.325 0.96937,-0.5 0.53316,-0.825 0.96937,-1.95 0.96937,-2.5 z m 0.14276,-9 c 0.20054,-0.55 -1.3655,-4.375 -3.48009,-8.5 -2.58885,-5.05015 -3.18726,-6.84671 -1.83196,-5.5 1.10702,1.1 2.91216,3.71364 4.01142,5.80809 1.09926,2.09445 2.28202,3.3496 2.62836,2.78922 0.34633,-0.56038 -1.01891,-3.39902 -3.03386,-6.30809 -5.29554,-7.64538 -7.63565,-10.03568 -8.48288,-8.66482 -0.46637,0.7546 -1.11245,0.39035 -1.89233,-1.06686 -0.66679,-1.24593 -1.78621,-1.98164 -2.5621,-1.6839 -0.80811,0.3101 -2.6373,-1.06132 -4.42331,-3.31634 -3.52576,-4.45164 -3.67901,-5.05176 -1.29538,-5.07261 1.49258,-0.0131 1.52936,-0.15545 0.25,-0.96796 -0.95526,-0.60668 -1.62105,-0.60112 -1.83333,0.0153 -0.56929,1.65314 -1.86662,1.07484 -3.63156,-1.61881 -2.18511,-3.33489 -1.47327,-3.94974 2.30861,-1.99405 1.66628,0.86167 3.68758,1.31417 4.49178,1.00557 1.84162,-0.7067 3.34519,1.53652 1.70808,2.54831 -0.83537,0.51629 -0.58739,0.91297 0.79707,1.27501 1.38586,0.36242 1.85321,0.11771 1.50554,-0.78829 -0.35923,-0.93615 0.13845,-1.14581 1.73119,-0.7293 1.54962,0.40524 2.01456,0.22729 1.51558,-0.58007 -1.05688,-1.71007 -6.49907,-4.32647 -7.59296,-3.65041 -0.5177,0.31995 -2.21397,-0.0764 -3.7695,-0.8808 -2.21983,-1.14792 -3.83952,-1.24685 -7.52937,-0.45989 -2.58562,0.55146 -4.70113,1.12151 -4.70113,1.26676 0,0.14526 2.91101,2.40129 6.46891,5.01341 3.55791,2.61212 8.05791,6.50812 10,8.65779 1.9421,2.14967 3.54938,3.34469 3.57173,2.65561 0.0224,-0.68908 1.36709,0.29882 2.9883,2.19533 1.93456,2.26307 2.56428,3.68516 1.83221,4.13761 -0.77515,0.47906 -0.49646,1.86775 0.91346,4.55178 3.47683,6.61874 7.22539,14.30358 7.22539,14.81261 0,0.26786 -0.68989,0.22228 -1.53309,-0.10128 -1.32608,-0.50887 -1.36431,-0.21786 -0.28313,2.15508 l 1.24997,2.74338 1.15688,-4.37369 c 0.63628,-2.40554 1.32095,-4.8237 1.5215,-5.3737 z m -3.22301,-1.17327 c -0.85785,-1.0047 -2.15926,-3.40173 -2.89202,-5.32673 -0.73276,-1.925 -1.72873,-4.02244 -2.21326,-4.66097 -0.51602,-0.68004 -0.48695,-1.40449 0.0702,-1.74882 0.52313,-0.32331 1.42851,0.78153 2.01196,2.4552 0.58344,1.67367 2.01259,4.3797 3.17588,6.01339 2.38791,3.35351 2.25983,6.0935 -0.15275,3.26793 z M 442.146,223.3729 c -0.36667,-0.36666 -0.66667,-1.13166 -0.66667,-1.7 0,-0.6266 0.46577,-0.56756 1.18333,0.15 0.65084,0.65084 0.95084,1.41584 0.66667,1.7 -0.28417,0.28417 -0.81667,0.21667 -1.18333,-0.15 z m 14.83333,20.66667 c 0.33992,-0.55 0.14148,-1 -0.44098,-1 -0.58246,0 -1.05902,0.45 -1.05902,1 0,0.55 0.19844,1 0.44098,1 0.24254,0 0.7191,-0.45 1.05902,-1 z m -1.51531,-4.75 c 0.008,-0.6875 -0.43469,-1.25 -0.98469,-1.25 -0.55,0 -0.99311,1.2375 -0.98469,2.75 0.0119,2.14294 0.22931,2.41887 0.98469,1.25 0.53316,-0.825 0.97627,-2.0625 0.98469,-2.75 z m -13.00475,1.22583 c -0.69572,-0.83829 -1.47088,-1.31823 -1.72258,-1.06653 -0.69349,0.6935 0.71555,2.5907 1.9241,2.5907 0.6631,0 0.58723,-0.57378 -0.20152,-1.52417 z m -9.79661,-4.6925 c -0.71756,-0.71756 -1.18333,-0.7766 -1.18333,-0.15 0,1.33478 1.18261,2.51739 1.85,1.85 0.28417,-0.28416 -0.0158,-1.04916 -0.66667,-1.7 z m 24.80136,-9.59235 c 0.008,-0.71996 -0.43469,-1.0309 -0.98469,-0.69098 -0.55,0.33992 -0.99311,1.60398 -0.98469,2.80902 0.0125,1.78123 0.1966,1.91046 0.98469,0.69098 0.53316,-0.825 0.97627,-2.08906 0.98469,-2.80902 z m -7.98469,-2.83799 c 0,-0.35585 -1.6875,-2.6912 -3.75,-5.18966 -2.0625,-2.49845 -4.30395,-5.2448 -4.981,-6.10299 -1.05887,-1.34216 -1.36282,-1.35959 -2.17378,-0.12464 -0.7874,1.19907 -1.20635,1.21696 -2.5419,0.10855 -1.37482,-1.141 -1.50642,-1.08562 -0.93831,0.39487 0.41186,1.0733 1.36229,1.53857 2.5229,1.23507 1.67097,-0.43697 2.32243,0.41031 1.98051,2.57581 -0.0651,0.4125 0.21908,0.69671 0.63158,0.63158 2.15775,-0.3407 3.28203,0.43418 5.25,3.61842 1.9317,3.12556 4,4.60077 4,2.85299 z m 6.68311,-3.54049 c -0.31922,-0.79773 -0.55618,-0.56078 -0.60416,0.60417 -0.0434,1.05416 0.19292,1.64479 0.52522,1.3125 0.33229,-0.3323 0.36781,-1.1948 0.0789,-1.91667 z m 0,-4 c -0.31922,-0.79773 -0.55618,-0.56078 -0.60416,0.60417 -0.0434,1.05416 0.19292,1.64479 0.52522,1.3125 0.33229,-0.3323 0.36781,-1.1948 0.0789,-1.91667 z m 0.37681,-6.33647 c -0.8776,-2.94113 -0.88902,-2.9297 -0.97397,0.97397 -0.0558,2.56295 0.25606,3.60799 0.88802,2.97603 0.60229,-0.60229 0.63509,-2.10963 0.0859,-3.95 z m -17.55992,-9.21058 c -1.1,-0.25277 -2.45,-0.924 -3,-1.49162 -0.68439,-0.70632 -0.0532,-0.81589 2,-0.34717 l 3,0.68487 -2.39907,-1.71688 c -1.31949,-0.94429 -4.65139,-1.9333 -7.40423,-2.19782 -5.62399,-0.54039 -25.47745,1.7026 -23.86903,2.69666 1.34804,0.83314 9.9823,0.54012 13.0787,-0.44385 1.71503,-0.54499 2.20084,-0.43213 1.69098,0.39284 -0.39346,0.63663 -1.56227,1.15752 -2.59735,1.15752 -1.03508,0 -2.08818,0.3375 -2.34023,0.75 -0.25204,0.4125 5.0089,0.80063 11.69099,0.86251 6.68208,0.0619 11.24924,-0.0943 10.14924,-0.34706 z m -10,-2.89315 -3,-1.46526 3.46875,0.56523 c 1.90781,0.31088 3.91031,1.00679 4.45,1.54648 1.45835,1.45835 -1.37057,1.08656 -4.91875,-0.64645 z m -13.03096,-4.58659 c 1.6729,-1.58824 1.69567,-1.78571 0.20593,-1.78571 -0.92124,0 -1.67497,0.45 -1.67497,1 0,0.55 -0.9,1 -2,1 -1.1,0 -2,0.35357 -2,0.78571 0,1.45443 3.57168,0.80136 5.46904,-1 z m 29.53096,1.86928 c 0,-0.18976 -0.96374,-1.20226 -2.14165,-2.25 -2.13405,-1.89823 -2.13675,-1.897 -0.75946,0.34501 1.17465,1.91214 2.90111,3.0458 2.90111,1.90499 z m -21,-2.71401 c 0,-0.58246 0.5625,-0.74144 1.25,-0.35329 0.8748,0.49389 0.94466,0.37135 0.23275,-0.40823 -0.55948,-0.61268 -2.06002,-0.84126 -3.33453,-0.50797 -1.73139,0.45277 -1.97986,0.81988 -0.98275,1.45193 1.81658,1.15152 2.83453,1.086 2.83453,-0.18244 z m 10.6896,-6.53685 c -4.75666,-4.4213 -4.43221,-6.27279 0.51065,-2.91403 4.45054,3.02422 5.75803,3.22626 3.29975,0.5099 -0.99549,-1.1 -2.17025,-2 -2.61058,-2 -0.44033,0 -2.50809,-1.16423 -4.59501,-2.58718 -4.47738,-3.05287 -15.53488,-8.35495 -19.79441,-9.49145 -2.53491,-0.67634 -2.70956,-0.61602 -1.12656,0.3891 1.03039,0.65424 4.85539,3.13814 8.5,5.51978 3.64461,2.38165 7.63906,4.73301 8.87656,5.22526 2.39891,0.95422 3.08507,2.95934 1,2.92225 -0.6875,-0.0122 -2.375,-0.90222 -3.75,-1.97776 -2.99061,-2.33929 -4,-2.48503 -4,-0.57755 0,1.44669 6.15264,4.02149 9.14173,3.8257 0.90296,-0.0592 2.6689,0.98582 3.92432,2.32215 1.25542,1.33634 2.76664,2.41752 3.35826,2.40264 0.59163,-0.0149 -0.63899,-1.62084 -2.73471,-3.56881 z m -65.1896,-0.0928 c -1.1,-0.25117 -3.4625,-0.83769 -5.25,-1.30339 -1.7875,-0.4657 -3.25,-0.4643 -3.25,0.003 0,0.97695 3.15492,1.70753 7.5,1.73676 1.83928,0.0124 2.22619,-0.15651 1,-0.43649 z m -15.52896,-4.35039 c -2.37128,-1.49964 -3.65241,-1.03455 -1.54404,0.56053 1.05985,0.80183 2.17182,1.21305 2.47104,0.91382 0.29922,-0.29922 -0.11793,-0.96268 -0.927,-1.47435 z m 34.65396,-0.96094 c 2.07812,0 1.65826,-2.59104 -1.13754,-7.01987 -3.255,-5.15624 -6.39545,-5.63339 -3.37415,-0.51265 1.12523,1.90711 1.89397,4.2562 1.70832,5.2202 -0.21343,1.10827 -1.59251,-0.69408 -3.75068,-4.90186 -2.43671,-4.75085 -4.58002,-7.41401 -7.49204,-9.30919 l -4.07891,-2.65459 2.57673,2.83898 c 4.91744,5.41793 8.92327,11.74544 8.92327,14.095 0,1.32003 -0.44114,2.08937 -1,1.74398 -0.55,-0.33992 -1,-1.48805 -1,-2.55141 0,-2.26018 -2.38164,-5.3336 -10.12053,-13.06018 -3.09129,-3.08637 -5.80841,-6.17523 -6.03805,-6.86414 -0.22963,-0.68891 -1.30039,-1.04499 -2.37947,-0.7913 -1.63698,0.38485 -0.70512,1.68743 5.62604,7.86414 8.23779,8.03684 11.35637,12.30252 10.54329,14.42137 -0.61123,1.59286 2.51783,2.46504 6.74372,1.87973 1.58125,-0.21902 3.49375,-0.39821 4.25,-0.39821 z m 26.42775,-1.58806 c -8.68949,-3.9447 -10.05275,-4.08955 -10.05275,-1.06807 0,2.43658 0.30293,2.5779 6.25,2.91573 3.4375,0.19527 6.925,0.41582 7.75,0.49012 0.825,0.0743 -0.95126,-0.97771 -3.94725,-2.33778 z m -50.05275,0.55667 c 0,-0.56726 -0.7875,-1.30857 -1.75,-1.64736 -0.9625,-0.33879 -3.63781,-1.44967 -5.94514,-2.46862 -2.30732,-1.01895 -4.49992,-1.85263 -4.87244,-1.85263 -1.15845,0 1.74678,2.99802 2.94002,3.03393 0.62016,0.0187 2.92756,0.90339 5.12756,1.96607 4.77797,2.30792 4.5,2.24809 4.5,0.96861 z m 8,-0.0588 c 0,-1.44778 -5.27336,-8.86119 -6.32258,-8.88842 -0.45242,-0.0117 0.11008,1.16434 1.25,2.61351 1.13992,1.44917 2.07258,3.69917 2.07258,5 0,1.43568 0.58947,2.36514 1.5,2.36514 0.825,0 1.5,-0.4906 1.5,-1.09022 z m 3,-0.0719 c 0,-1.87708 -4.98534,-9.83785 -6.16084,-9.83785 -0.5921,0 0.10187,1.54497 1.54215,3.43328 1.44028,1.8883 2.61869,4.3633 2.61869,5.5 0,1.13669 0.45,2.06672 1,2.06672 0.55,0 1,-0.52296 1,-1.16214 z m 25,0.0964 c 0,-0.58615 -0.46583,-1.93615 -1.03518,-3 -0.57628,-1.07678 -0.63057,-1.93425 -0.12245,-1.93425 1.23749,0 2.83071,2.07053 3.46262,4.5 0.28612,1.1 0.44704,0.2 0.35761,-2 -0.15139,-3.72418 0.01,-3.97683 2.3374,-3.66394 1.375,0.18483 4.48204,1.20279 6.90454,2.26212 6.62526,2.89718 6.19195,1.41653 -0.53706,-1.83518 -10.16517,-4.91218 -22.66726,-6.88024 -16.89521,-2.65962 2.0332,1.48672 3.24371,8.39662 1.47095,8.39662 -0.51877,0 -0.94322,-0.86547 -0.94322,-1.92328 0,-2.37887 -4.66258,-8.07672 -6.60922,-8.07672 -1.14277,0 -1.02401,0.7986 0.5889,3.96016 1.11117,2.17809 2.02032,4.65309 2.02032,5.5 0,1.15833 1.11492,1.53984 4.5,1.53984 2.51839,0 4.5,-0.46931 4.5,-1.06574 z m 34.71926,-2.22347 c -0.65744,-1.71324 -11.48027,-7.2831 -12.38802,-6.37536 -0.36551,0.36552 -0.11271,0.66458 0.56179,0.66458 0.6745,0 3.55148,1.77302 6.39329,3.94004 5.16946,3.94197 6.42288,4.35049 5.43294,1.77074 z m -83.71926,0.4116 c 0,-1.36492 -2.13742,-2.74734 -6.5,-4.20399 -2.2,-0.73458 -4.57338,-1.75586 -5.27417,-2.26952 -0.70079,-0.51366 -1.52118,-0.68691 -1.82309,-0.385 -0.49418,0.49418 11.03378,7.32895 12.84726,7.61696 0.4125,0.0655 0.75,-0.27579 0.75,-0.75845 z m 16.39121,-0.37244 c -1.74108,-2.99433 -6.63538,-8.75 -7.44051,-8.75 -0.48468,0 -3.00997,-1.35 -5.61175,-3 -5.22237,-3.31193 -8.48308,-4.08352 -6.33895,-1.5 0.68469,0.825 1.72092,1.5 2.30273,1.5 2.1987,0 13.44084,8.14177 14.52366,10.51832 0.6219,1.36492 1.61694,2.48168 2.21119,2.48168 0.59425,0 0.75338,-0.5625 0.35363,-1.25 z m -7.42898,-3.70936 c -1.90423,-1.62765 -4.13723,-2.95936 -4.96223,-2.95936 -0.89129,0 -0.095,1.20092 1.96223,2.95936 1.90422,1.62765 4.13722,2.95936 4.96222,2.95936 0.8913,0 0.095,-1.20092 -1.96222,-2.95936 z m -17.96223,148.65936 c 0,-0.715 0.4897,-1.7897 1.08822,-2.38822 3.08631,-3.08631 1.89614,-30.82666 -1.59894,-37.26776 -3.8651,-7.12304 -4.74294,-10.03345 -3.48387,-11.55054 0.68171,-0.82141 1.78458,-1.49348 2.45082,-1.49348 3.06384,0 13.62619,19.44739 13.45782,24.77851 l -0.086,2.72149 -0.96855,-3 c -0.5327,-1.65 -1.08946,-3.45 -1.23724,-4 -1.65484,-6.15892 -8.96325,-17.5 -11.27733,-17.5 -1.11425,0 -1.33715,0.49919 -0.7814,1.75 4.18645,9.42227 6.7749,19.48616 7.00874,27.25 0.26116,8.67087 -1.95176,22 -3.65246,22 -0.50588,0 -0.91981,-0.585 -0.91981,-1.3 z m 5.07029,-2.45 c 0.0988,-2.46031 1.7593,-6.19453 1.88983,-4.25 0.078,1.16259 0.33942,1.08948 1.16195,-0.325 0.58369,-1.00375 0.79891,-2.08735 0.47827,-2.40799 -0.32064,-0.32065 -0.13694,-1.12045 0.40823,-1.77734 0.54518,-0.65689 1.28038,-3.9608 1.63379,-7.34201 0.3534,-3.38121 1.04825,-6.14766 1.5441,-6.14766 1.10665,0 0.10315,9.59035 -1.27245,12.16067 -0.54807,1.02408 -0.90885,2.41937 -0.80174,3.10064 0.2869,1.82478 -2.97728,8.73869 -4.12569,8.73869 -0.54262,0 -0.95495,-0.7875 -0.91629,-1.75 z m 1.42971,-18.69232 c 0,-7.98993 0.30821,-11.6558 0.86166,-10.24857 1.32953,3.38054 1.06052,22.69305 -0.31605,22.68947 -0.30008,-7.8e-4 -0.54561,-5.59918 -0.54561,-12.4409 z m 28.90567,9.11053 c 0.32688,-1.00748 0.60122,-3.03248 0.60964,-4.5 0.0106,-1.84337 0.27683,-2.25566 0.86127,-1.33368 0.65813,1.03825 0.95162,0.92725 1.32193,-0.5 0.64714,-2.49421 -0.13287,-4.49313 -1.43843,-3.68625 -0.63721,0.39382 -0.77678,0.18776 -0.34549,-0.51008 0.39798,-0.64395 1.14251,-0.91193 1.65451,-0.59549 0.51199,0.31643 0.93779,-0.91373 0.94621,-2.73369 0.0108,-2.32288 0.28048,-2.89018 0.90508,-1.90359 1.60192,2.53031 -0.33965,15.13732 -2.30859,14.99014 -0.4885,-0.0365 -1.31845,0.53454 -1.84433,1.26902 -0.7037,0.98284 -0.79922,0.85178 -0.3618,-0.49638 z m -3.40567,-1.66821 c 0,-0.55 0.47656,-1 1.05902,-1 0.58246,0 0.7809,0.45 0.44098,1 -0.33992,0.55 -0.81648,1 -1.05902,1 -0.24254,0 -0.44098,-0.45 -0.44098,-1 z m 0.98635,-6.69098 c -0.008,-1.54496 -0.29373,-3.93402 -0.63605,-5.30902 -0.41683,-1.67434 -0.29021,-2.16974 0.38342,-1.5 1.40936,1.40123 2.33097,8.34199 1.20044,9.04069 -0.51379,0.31754 -0.9403,-0.68671 -0.94781,-2.23167 z m -14.98635,-6.68402 c 0,-1.30625 -0.25496,-3.89375 -0.56657,-5.75 -0.42617,-2.53862 -0.31128,-2.97945 0.46358,-1.77888 1.63603,2.53489 2.55181,9.90388 1.2308,9.90388 -0.6203,0 -1.12781,-1.06875 -1.12781,-2.375 z m 11.74097,1.04321 c -1.15951,-2.86648 -0.95139,-5.27863 0.34369,-3.98355 0.59657,0.59657 0.93001,2.14907 0.74097,3.45 -0.30261,2.08262 -0.43226,2.14639 -1.08466,0.53355 z m 6.33798,-0.25154 c 0.048,-1.16495 0.28494,-1.4019 0.60416,-0.60417 0.28887,0.72187 0.25335,1.58437 -0.0789,1.91667 -0.3323,0.33229 -0.56864,-0.25834 -0.52522,-1.3125 z m -4.08977,-5.10765 c -0.0184,-4.76545 -2.78721,-12.26621 -6.04756,-16.38273 -3.59589,-4.54019 -2.35874,-5.39915 1.37881,-0.95733 3.70431,4.40233 7.71116,18.27545 5.64682,19.55128 -0.53454,0.33037 -0.97209,-0.65884 -0.97807,-2.21122 z m 4.24282,-1.30902 c 0,-1.925 0.2058,-2.7125 0.45733,-1.75 0.25152,0.9625 0.25152,2.5375 0,3.5 -0.25153,0.9625 -0.45733,0.175 -0.45733,-1.75 z m -8.96005,-2.46557 c -0.66384,-2.163 -1.0092,-4.13052 -0.76745,-4.37227 0.68996,-0.68995 2.6106,5.00165 2.27532,6.74264 -0.16549,0.8593 -0.84403,-0.20737 -1.50787,-2.37037 z m -57.55204,-4.00171 c -3.67769,-6.88819 -4.68177,-10.24521 -2.69753,-9.01889 1.69916,1.05014 7.11609,12.5348 6.75458,14.32067 -0.20334,1.00451 -1.81347,-1.09961 -4.05705,-5.30178 z m 23.28009,5.46728 c 0,-0.55 0.45,-1 1,-1 0.55,0 1,0.45 1,1 0,0.55 -0.45,1 -1,1 -0.55,0 -1,-0.45 -1,-1 z m 4.18135,-3.15623 c -0.53045,-1.83907 -1.30448,-4.24377 -1.72008,-5.34377 -0.51399,-1.36045 -0.42742,-1.68022 0.27075,-1 1.32423,1.2902 3.62948,8.47183 2.94054,9.16077 -0.28972,0.28973 -0.96077,-0.97792 -1.49121,-2.817 z m 59.7176,-1.61193 c -0.74293,-2.60251 -1.37333,-4.95684 -1.40086,-5.23184 -0.0275,-0.275 -0.75921,-1.625 -1.62593,-3 -0.86673,-1.375 -2.78503,-4.63499 -4.2629,-7.24443 -1.47787,-2.60944 -3.9081,-5.37587 -5.40051,-6.14762 -3.36498,-1.7401 -6.53157,-5.14826 -6.06137,-6.52378 0.19394,-0.56736 2.15262,0.67209 4.35262,2.75434 2.2,2.08224 4.69031,4.04398 5.53401,4.35942 0.84371,0.31545 2.63417,2.71258 3.9788,5.32698 1.34463,2.61439 3.64737,6.04081 5.1172,7.61426 2.49093,2.66655 2.60843,3.3155 0.53426,2.95067 -1.01712,-0.1789 0.19698,5.95018 1.49976,7.57113 0.56927,0.7083 0.57294,1.38356 0.009,1.73184 -0.50802,0.31398 -1.53154,-1.55846 -2.27448,-4.16097 z m -52.316,2.90237 c -0.43077,-0.697 -0.51316,-1.53733 -0.18309,-1.86741 0.89497,-0.89496 1.87077,0.4213 1.38739,1.87145 -0.33872,1.01617 -0.57427,1.01538 -1.2043,-0.004 z m 38.07334,-1.34054 c -0.81251,-3.10708 -0.19266,-3.26628 1.15983,-0.2979 0.62755,1.37733 0.75313,2.50423 0.27907,2.50423 -0.47406,0 -1.12156,-0.99285 -1.4389,-2.20633 z M 331.47933,283.111 c 0,-0.51072 -0.72857,-1.65714 -1.61905,-2.54762 -0.89047,-0.89048 -1.3097,-1.9284 -0.93161,-2.30649 0.3781,-0.37809 1.54666,0.43084 2.59682,1.79762 2.14371,2.79005 2.42974,3.98506 0.95384,3.98506 -0.55,0 -1,-0.41786 -1,-0.92857 z m 27,-0.63045 c 0,-0.85746 0.45,-1.2809 1,-0.94098 0.55,0.33992 1,1.04148 1,1.55902 0,0.51754 -0.45,0.94098 -1,0.94098 -0.55,0 -1,-0.70156 -1,-1.55902 z m 22.75,-1.3343 c -0.9625,-0.97595 -1.75,-2.38921 -1.75,-3.14057 0,-1.00966 0.29271,-1.0734 1.12186,-0.24425 0.61702,0.61702 1.85452,0.88957 2.75,0.60566 1.34854,-0.42754 1.38159,-0.34134 0.19244,0.50193 -1.18955,0.84357 -1.21142,1.28836 -0.12755,2.59433 1.78391,2.14949 -0.0108,1.88923 -2.18675,-0.3171 z m 13.79545,-1.65213 c -0.86443,-2.0689 -1.36716,-3.96618 -1.11716,-4.21618 0.25,-0.25 1.16182,1.23819 2.02626,3.30708 0.86443,2.0689 1.36716,3.96618 1.11716,4.21618 -0.25,0.25 -1.16182,-1.23819 -2.02626,-3.30708 z m -34.58939,0.3811 c -0.66329,-1.28461 -2.12819,-3.34815 -3.25534,-4.58565 -1.12714,-1.2375 -1.52729,-2.25 -0.88922,-2.25 1.37886,0 6.733,7.78883 5.91586,8.60597 -0.31093,0.31093 -1.10801,-0.48572 -1.7713,-1.77032 z m -26.90699,-7.36648 c -2.53566,-2.54771 -3.15552,-3.76272 -2.33713,-4.58111 1.55542,-1.55542 2.99303,-0.40208 5.20469,4.17552 2.33002,4.82258 1.62744,4.92195 -2.86756,0.40559 z m 45.87454,0.62111 c -0.86702,-0.95869 -1.88447,-2.38369 -2.26101,-3.16667 -2.26291,-4.70551 -4.71493,-7.55348 -8.1674,-9.48629 -4.26094,-2.38541 -5.64029,-4.43732 -2.9829,-4.43732 2.84071,0 7.42582,3.95804 9.65462,8.33421 1.16691,2.29119 3.23513,5.62829 4.59605,7.41579 2.56878,3.37395 1.92686,4.39895 -0.83936,1.34028 z m 21.22034,-0.34028 c -0.60195,-1.5125 -1.55559,-2.75 -2.1192,-2.75 -0.56361,0 -1.02475,-0.45 -1.02475,-1 0,-1.82599 1.74699,-1.03509 3.448,1.56098 0.92291,1.40854 1.4783,3.09604 1.2342,3.75 -0.24409,0.65396 -0.93631,-0.0485 -1.53825,-1.56098 z m -13.69951,-1.19444 c -2.02656,-3.09293 -1.7862,-3.47803 1.55556,-2.49233 1.8357,0.54147 2.00246,0.7639 0.62756,0.83709 -1.56191,0.0832 -1.66266,0.35246 -0.6075,1.62385 0.69572,0.83829 1.01177,1.77733 0.70234,2.08676 -0.30943,0.30943 -1.33451,-0.61549 -2.27796,-2.05537 z m 4.22223,1.77777 c -0.36667,-0.36666 -0.66667,-1.13166 -0.66667,-1.7 0,-0.6266 0.46577,-0.56756 1.18333,0.15 0.65084,0.65084 0.95084,1.41584 0.66667,1.7 -0.28417,0.28417 -0.81667,0.21667 -1.18333,-0.15 z m -37.5037,-4.93174 c -2.106,-1.47509 -2.9209,-3.42406 -1.41297,-3.37935 0.4125,0.0122 1.82371,0.84784 3.13603,1.85691 2.91,2.23756 1.31277,3.64882 -1.72306,1.52244 z m 19.83703,0.53939 c 0,-0.58246 0.45,-0.7809 1,-0.44098 0.55,0.33992 1,0.81648 1,1.05902 0,0.24254 -0.45,0.44098 -1,0.44098 -0.55,0 -1,-0.47656 -1,-1.05902 z m -14.25157,-1.38298 c -2.10655,-1.54035 -2.24795,-2.558 -0.35542,-2.558 0.76616,0 1.67675,0.73941 2.02354,1.64313 0.84738,2.20824 0.4207,2.44225 -1.66812,0.91487 z m 7.25157,0.10268 c 0,-0.73663 -1.61641,-2.81022 -3.59202,-4.60799 -2.62692,-2.39044 -3.29448,-3.56619 -2.48461,-4.37606 0.80987,-0.80987 1.89315,-0.31067 4.03193,1.85799 3.10424,3.1476 5.08496,8.46538 3.15311,8.46538 -0.60963,0 -1.10841,-0.60269 -1.10841,-1.33932 z m 36.55497,-0.57174 c -0.48543,-0.78543 -0.28358,-1.63864 0.50261,-2.12453 1.08252,-0.66903 1.08352,-1.08947 0.006,-2.38819 -0.71981,-0.86692 -0.8756,-1.57622 -0.34654,-1.57622 0.52906,0 1.48416,1.14617 2.12244,2.54705 1.39943,3.0714 1.4552,3.75311 0.24593,3.00574 -0.50302,-0.31089 -1.09564,-0.0221 -1.31692,0.64173 -0.30168,0.90505 -0.60524,0.87865 -1.21352,-0.10558 z m -19.55497,-1.99016 c 0,-0.49568 -1.50352,-1.78833 -3.34116,-2.87256 -3.92553,-2.31612 -8.15511,-7.80147 -6.70602,-8.69706 0.54397,-0.33619 2.01461,0.62795 3.2681,2.14253 3.34623,4.0432 7.08807,7.66525 9.31781,9.0195 1.89534,1.15115 1.88563,1.19317 -0.28873,1.25 -1.2375,0.0323 -2.25,-0.34674 -2.25,-0.84241 z m 12,-3.47904 c -5.99695,-4.43865 -8.58553,-7.43421 -7.4261,-8.59364 0.87787,-0.87787 13.4261,9.65645 13.4261,11.2713 0,1.32184 -1.50202,0.65152 -6,-2.67766 z m 27.0563,-5.70825 c -1.40028,-2.94938 -5.69469,-8.38087 -10.33435,-13.07068 -4.8679,-4.92052 -7.5804,-8.38236 -7.01272,-8.95004 0.89331,-0.89331 10.29077,7.39171 10.29077,9.07259 0,0.42109 1.25232,2.19996 2.78293,3.95304 1.89134,2.16625 3.32077,2.98104 4.4617,2.54322 1.51972,-0.58317 1.47495,-0.9199 -0.47258,-3.55407 -1.18324,-1.60042 -2.41539,-2.48264 -2.73809,-1.96049 -0.91972,1.48813 -2.58197,-0.0834 -4.87699,-4.61085 -1.16143,-2.29118 -3.47188,-5.13432 -5.13433,-6.31809 -1.66245,-1.18377 -3.02264,-2.57167 -3.02264,-3.08421 0,-1.60526 2.39644,-0.96011 5.01353,1.34969 3.6903,3.25699 13.98647,15.58221 13.98647,16.74276 0,0.54859 0.95769,3.03484 2.12821,5.525 1.17051,2.49016 1.7839,4.84775 1.36309,5.2391 -0.42081,0.39135 -0.98871,0.0809 -1.262,-0.68985 -0.36747,-1.03637 -0.79385,-0.84651 -1.63701,0.72895 -1.06848,1.99648 -1.29066,1.81325 -3.53599,-2.91607 z m 2.91827,-3.95901 c -1.14816,-2.14535 -3.05321,-2.21655 -3.7454,-0.13998 -0.22376,0.67127 0.53912,1.1875 1.75488,1.1875 1.74598,0 2.03496,0.42343 1.53559,2.25 -0.52744,1.92921 -0.45973,2.00238 0.47489,0.51325 0.78875,-1.25673 0.78323,-2.30999 -0.02,-3.81077 z m -6.97457,-10.95248 c 0,-0.55 -0.47656,-1 -1.05902,-1 -0.58246,0 -0.7809,0.45 -0.44098,1 0.33992,0.55 0.81648,1 1.05902,1 0.24254,0 0.44098,-0.45 0.44098,-1 z m 14.58345,7.35687 c -0.83718,-2.18165 0.27438,-3.1957 1.45561,-1.32791 1.18254,1.86986 1.20771,2.97104 0.0679,2.97104 -0.49116,0 -1.17675,-0.73941 -1.52354,-1.64313 z M 420.146,247.3729 c -0.36667,-0.36666 -0.66667,-1.13166 -0.66667,-1.7 0,-0.6266 0.46577,-0.56756 1.18333,0.15 0.65084,0.65084 0.95084,1.41584 0.66667,1.7 -0.28417,0.28417 -0.81667,0.21667 -1.18333,-0.15 z m -17.66667,-59.33333 c 3.63661,-1.16465 10,-1.16465 10,0 0,0.57063 -2.68355,0.9572 -6.25,0.90032 -4.64485,-0.0741 -5.60794,-0.3053 -3.75,-0.90032 z m -56.54112,-20.06679 c -0.36253,-0.58659 -0.41903,-1.30665 -0.12555,-1.60014 0.71632,-0.71631 2.66667,0.54583 2.66667,1.72569 0,1.27797 -1.72641,1.19267 -2.54112,-0.12555 z"
       id="path4359"
       inkscape:connector-curvature="0" />
  </g>
</svg>
